<?xml version="1.0" encoding="utf-8"?>
<!-- Generator: Adobe Illustrator 27.5.0, SVG Export Plug-In . SVG Version: 6.00 Build 0)  -->
<svg version="1.1" xmlns="http://www.w3.org/2000/svg" xmlns:xlink="http://www.w3.org/1999/xlink" x="0px" y="0px"
	 viewBox="0 0 500 500" style="enable-background:new 0 0 500 500;" xml:space="preserve">
<g id="Floor">
	<ellipse id="Floor_1_" style="fill:#FAFAFA;" cx="250" cy="349.567" rx="247.783" ry="143.058"/>
</g>
<g id="Shadows">
	<path id="Shadow_10_" style="fill:#E0E0E0;" d="M126.367,467.74l-80.441-46.442c-2.391-1.381-2.391-3.618,0.002-4.997
		l293.453-169.157c2.392-1.379,6.271-1.378,8.662,0.003l80.174,46.288c2.392,1.381,2.392,3.62,0,5l-293.19,169.305
		C132.636,469.12,128.758,469.12,126.367,467.74z"/>
	<ellipse id="Shadow_15_" style="fill:#E0E0E0;" cx="403.418" cy="344.483" rx="67.933" ry="39.221"/>
</g>
<g id="Window">
	<g id="Window_5_">
		<g>
			<path style="fill:#E0E0E0;" d="M434.247,151.839c-4.232,0-8.864-1.386-13.62-4.131l0,0
				c-17.453-10.077-31.651-35.741-31.651-57.211l-0.001-43.461c0-11.009,3.63-19.168,10.221-22.973
				c6.035-3.485,13.874-2.794,22.074,1.939c17.453,10.076,31.652,35.741,31.652,57.211v43.461c0,11.009-3.63,19.168-10.221,22.973
				C440.166,151.111,437.312,151.839,434.247,151.839z M421.27,146.595c7.788,4.496,15.169,5.184,20.789,1.939
				c6.087-3.514,9.578-11.481,9.578-21.859V83.214c0-21.061-13.911-46.226-31.01-56.098c-7.789-4.496-15.17-5.185-20.789-1.939
				c-6.087,3.514-9.578,11.481-9.578,21.859l0.001,43.461C390.261,111.558,404.171,136.723,421.27,146.595z"/>
		</g>
		<path style="fill:#37474F;" d="M420.943,36.643c-5.592-3.227-10.772-4.049-15.014-2.828h-0.013l-0.039,0.039
			c-0.411,0.129-0.823,0.27-1.221,0.424c-0.398,0.167-0.784,0.347-1.17,0.553c-1.131,0.604-2.172,1.375-3.111,2.314
			c-0.476,0.476-0.913,0.977-1.337,1.517c-1.285,1.697-2.301,3.767-3.021,6.196c-0.051,0.206-0.116,0.424-0.167,0.63
			c-0.36,1.337-0.63,2.79-0.784,4.332c-0.039,0.283-0.064,0.566-0.077,0.849c-0.051,0.437-0.077,0.887-0.09,1.35
			c-0.013,0.218-0.026,0.45-0.026,0.668c-0.013,0.334-0.013,0.668-0.013,1.003v36.2c0,17.727,11.672,38.848,26.083,47.165
			c3.959,2.288,7.713,3.368,11.068,3.368c0.283,0,0.553-0.013,0.823-0.026c0.27-0.013,0.54-0.039,0.81-0.064
			c0.823-0.09,1.62-0.244,2.378-0.463c0.231-0.077,0.45-0.154,0.668-0.231c0.257-0.09,0.514-0.18,0.758-0.283
			c0.206-0.103,0.411-0.193,0.617-0.296c0.244-0.116,0.475-0.244,0.707-0.373c0.219-0.128,0.437-0.27,0.656-0.411
			c0.219-0.128,0.424-0.283,0.63-0.437c0.206-0.154,0.398-0.321,0.604-0.488c3.959-3.329,6.363-9.294,6.363-17.341V83.821
			C447.026,66.081,435.353,44.961,420.943,36.643z M441.884,120.008c0,5.091-1.08,9.217-3.137,11.929
			c-0.064,0.077-0.116,0.154-0.18,0.231c-0.437,0.051-0.874,0.103-1.324,0.103c-2.532,0-5.463-0.926-8.497-2.674
			c-12.752-7.353-23.512-26.918-23.525-42.717v-36.2c0-2.391,0.334-8.394,3.278-12.122c0.218-0.039,0.437-0.09,0.681-0.103
			c0.219-0.026,0.45-0.039,0.694-0.039c2.533,0,5.463,0.926,8.497,2.674c12.752,7.366,23.512,26.931,23.512,42.73V120.008z"/>
		<path style="fill:#BA68C8;" d="M441.884,83.821v36.187c0,5.091-1.08,9.217-3.137,11.929c-0.064,0.077-0.116,0.154-0.18,0.231
			c-0.437,0.051-0.874,0.103-1.324,0.103c-2.532,0-5.463-0.926-8.497-2.674c-12.752-7.353-23.512-26.918-23.525-42.717v-36.2
			c0-2.391,0.334-8.394,3.278-12.122c0.218-0.039,0.437-0.09,0.681-0.103c0.219-0.026,0.45-0.039,0.694-0.039
			c2.533,0,5.463,0.926,8.497,2.674C431.124,48.457,441.884,68.022,441.884,83.821z"/>
		<path style="opacity:0.6;fill:#FFFFFF;" d="M441.884,83.821v36.187c0,5.091-1.08,9.217-3.137,11.929
			c-0.064,0.077-0.116,0.154-0.18,0.231c-0.437,0.051-0.874,0.103-1.324,0.103c-2.532,0-5.463-0.926-8.497-2.674
			c-12.752-7.353-23.512-26.918-23.525-42.717v-36.2c0-2.391,0.334-8.394,3.278-12.122c0.218-0.039,0.437-0.09,0.681-0.103
			c0.219-0.026,0.45-0.039,0.694-0.039c2.533,0,5.463,0.926,8.497,2.674C431.124,48.457,441.884,68.022,441.884,83.821z"/>
		<g>
			<path style="fill:#FFFFFF;" d="M413.763,75.031c1.797,2.73,3.507,5.511,5.202,8.3c1.698,2.788,3.323,5.617,4.988,8.423
				c1.6,2.844,3.235,5.668,4.802,8.531c1.567,2.863,3.121,5.734,4.585,8.656c-1.799-2.729-3.508-5.511-5.204-8.299
				c-1.696-2.789-3.324-5.617-4.987-8.424c-1.598-2.845-3.235-5.668-4.801-8.532C416.783,80.823,415.229,77.953,413.763,75.031z"/>
			<path style="fill:#FFFFFF;" d="M423.585,79.485c1.024,1.489,1.983,3.016,2.931,4.549c0.95,1.532,1.846,3.095,2.772,4.641
				c0.877,1.574,1.781,3.133,2.634,4.72c0.853,1.588,1.696,3.182,2.473,4.814c-1.025-1.489-1.983-3.016-2.932-4.548
				c-0.948-1.533-1.847-3.094-2.771-4.641c-0.876-1.575-1.781-3.132-2.633-4.721C425.206,82.71,424.363,81.116,423.585,79.485z"/>
			<path style="fill:#FFFFFF;" d="M412.71,85.764c1.024,1.489,1.983,3.016,2.931,4.549c0.95,1.532,1.846,3.095,2.772,4.641
				c0.878,1.574,1.781,3.133,2.634,4.72c0.853,1.588,1.696,3.182,2.473,4.814c-1.025-1.489-1.984-3.016-2.932-4.548
				c-0.948-1.533-1.847-3.094-2.771-4.641c-0.876-1.575-1.781-3.132-2.633-4.721C414.33,88.989,413.487,87.395,412.71,85.764z"/>
		</g>
		<path style="fill:#455A64;" d="M420.949,36.647c-14.411-8.317-26.083-0.681-26.083,17.046v36.2
			c0,17.727,11.672,38.848,26.083,47.165c14.41,8.33,26.083,0.694,26.083-17.046V83.825
			C447.032,66.085,435.359,44.964,420.949,36.647z M441.89,120.011c0,5.091-1.08,9.217-3.137,11.929
			c-1.684,2.224-3.946,3.342-6.736,3.342c-2.532,0-5.463-0.926-8.497-2.674c-12.752-7.353-23.512-26.918-23.525-42.717v-36.2
			c0-3.574,0.72-15.272,9.886-15.272c2.532,0,5.463,0.925,8.497,2.674c12.752,7.366,23.512,26.931,23.512,42.73V120.011z"/>
		<path style="fill:#E0E0E0;" d="M440.637,73.936l-40.481-23.37c0.501-4.821,2.468-12.148,9.718-12.148
			c2.533,0,5.463,0.926,8.497,2.674C428.553,46.966,437.461,60.631,440.637,73.936z"/>
		<polygon style="fill:#455A64;" points="415.765,56.282 415.765,53.822 422.157,57.512 422.157,59.972 		"/>
	</g>
</g>
<g id="Window_Seat_1_">
	<g id="Window_Seat">
		<g id="Seat_2_">
			<g>
				<g>
					<g>
						<path style="fill:#BA68C8;" d="M336.58,151.118c0-0.614,0.405-1.228,1.217-1.696l10.66-6.155c1.623-0.937,4.253-0.937,5.876,0
							l68.842,39.723c0.811,0.468,1.216,1.082,1.216,1.696c0,0.571,0,2.611,0,3.182c0,0.614-0.406,1.228-1.217,1.696l-10.66,6.154
							c-1.623,0.937-4.253,0.937-5.875,0l-68.841-39.722c-0.811-0.468-1.217-1.082-1.217-1.696
							C336.58,153.73,336.58,151.689,336.58,151.118z"/>
					</g>
					<g style="opacity:0.1;">
						<path d="M336.58,151.118c0-0.614,0.405-1.228,1.217-1.696l10.66-6.155c1.623-0.937,4.253-0.937,5.876,0l68.842,39.723
							c0.811,0.468,1.216,1.082,1.216,1.696c0,0.571,0,2.611,0,3.182c0,0.614-0.406,1.228-1.217,1.696l-10.66,6.154
							c-1.623,0.937-4.253,0.937-5.875,0l-68.841-39.722c-0.811-0.468-1.217-1.082-1.217-1.696
							C336.58,153.73,336.58,151.689,336.58,151.118z"/>
					</g>
					<g>
						<path style="fill:#BA68C8;" d="M337.797,149.423l10.66-6.155c1.623-0.937,4.253-0.937,5.876,0l55.244,31.872v21.282
							c-1.063,0-2.126-0.234-2.938-0.703l-68.841-39.722c-0.811-0.468-1.217-1.082-1.217-1.696c0-0.571,0-2.611,0-3.182
							C336.58,150.505,336.986,149.891,337.797,149.423z"/>
					</g>
					<g style="opacity:0.35;">
						<path d="M337.797,149.423l10.66-6.155c1.623-0.937,4.253-0.937,5.876,0l55.244,31.872v21.282
							c-1.063,0-2.126-0.234-2.938-0.703l-68.841-39.722c-0.811-0.468-1.217-1.082-1.217-1.696c0-0.571,0-2.611,0-3.182
							C336.58,150.505,336.986,149.891,337.797,149.423z"/>
					</g>
				</g>
				<path style="fill:#37474F;" d="M421.343,175.554c-3.996-2.307-53.521-30.88-65.39-37.73c-2.186-1.262-4.867-1.262-7.052,0.001
					c-1.705,0.985-3.852,2.225-6.035,3.481c-4.229,2.434-5.855,3.067-6.208,5.279c-0.053,0.334-0.078,4.118-0.078,4.535
					c0,0.614,0.406,1.228,1.217,1.696l68.841,39.722c1.623,0.937,4.253,0.937,5.876,0l10.66-6.154
					c0.811-0.468,1.217-1.082,1.217-1.696c0-0.404-0.006-4.186-0.022-4.524C424.258,177.774,423.667,176.895,421.343,175.554z"/>
				<path style="fill:#455A64;" d="M355.534,138.413l66.061,38.117c0.777,0.449,1.166,1.037,1.166,1.626
					c0,0.588-0.389,1.177-1.166,1.626l-9.907,5.72c-1.719,0.993-4.532,0.992-6.251,0l-66.061-38.117
					c-0.777-0.449-1.166-1.037-1.166-1.626s0.389-1.177,1.166-1.625l9.907-5.72C351.002,137.421,353.815,137.421,355.534,138.413z"
					/>
			</g>
			<g>
				<g>
					<path style="fill:#EBEBEB;" d="M265.935,268.669l-7.399,4.272l2.985,29.28c0.33,3.232,2.877,7.169,5.691,8.793l53.048,30.604
						c1.525,0.88,3.03,0.909,4.18,0.241c0.972-0.564,6.242-3.604,7.392-4.268c0.976-0.563,1.697-1.626,1.961-3.094l4.339-24.169
						L265.935,268.669z"/>
					<path style="fill:#E0E0E0;" d="M261.522,302.221c0.329,3.232,2.877,7.169,5.691,8.793l53.048,30.604
						c2.813,1.624,5.56,0.349,6.134-2.849l4.339-24.169l-72.197-41.66L261.522,302.221z"/>
					<path style="opacity:0.1;" d="M261.522,302.221c0.329,3.232,2.877,7.169,5.691,8.793l53.048,30.604
						c2.813,1.624,5.56,0.349,6.134-2.849l4.339-24.169l-72.197-41.66L261.522,302.221z"/>
				</g>
				<g>
					<path style="fill:#EBEBEB;" d="M344.161,223.512l-7.399,4.272l2.985,29.28c0.329,3.232,2.877,7.169,5.691,8.793l53.048,30.604
						c1.525,0.88,3.03,0.909,4.18,0.241c0.972-0.564,6.242-3.604,7.392-4.268c0.976-0.563,1.697-1.626,1.961-3.094l4.339-24.17
						L344.161,223.512z"/>
					<path style="fill:#E0E0E0;" d="M339.748,257.064c0.33,3.232,2.877,7.169,5.691,8.793l53.048,30.604
						c2.813,1.624,5.56,0.349,6.134-2.849l4.339-24.169l-72.197-41.66L339.748,257.064z"/>
					<path style="opacity:0.1;" d="M339.748,257.064c0.33,3.232,2.877,7.169,5.691,8.793l53.048,30.604
						c2.813,1.624,5.56,0.349,6.134-2.849l4.339-24.169l-72.197-41.66L339.748,257.064z"/>
				</g>
				<g>
					<polygon style="fill:#BA68C8;" points="256.73,255.278 258.537,272.941 330.733,314.601 334.293,300.059 					"/>
					<polygon style="opacity:0.35;" points="256.73,255.278 258.537,272.941 330.733,314.601 334.293,300.059 					"/>
					<polygon style="fill:#BA68C8;" points="416.361,265.168 419.92,250.627 334.293,300.059 330.733,314.601 					"/>
					<polygon style="opacity:0.1;" points="416.361,265.168 419.92,250.627 334.293,300.059 330.733,314.601 					"/>
				</g>
			</g>
			<g>
				<g>
					<path style="fill:#455A64;" d="M419.92,234.025c0-10.218-5.451-19.661-14.301-24.77l-47.822-27.611l-19.116-11.037
						l-85.627,49.438l3.678,35.237l77.56,44.776l85.627-49.438L419.92,234.025z"/>
					<polygon style="fill:#37474F;" points="338.681,170.608 253.055,220.046 255.239,240.855 276.948,233.841 362.575,184.403 
											"/>
					<path style="fill:#263238;" d="M253.055,220.046l66.938,38.647c8.849,5.109,14.301,14.552,14.301,24.77l0,16.596l-77.56-44.776
						L253.055,220.046z"/>
				</g>
				<g>
					<path style="fill:#455A64;" d="M349.296,96.523c-0.955-9.093-6.206-17.18-14.124-21.752l-6.511-3.759l-85.625,49.435
						l0.001,0.006l-0.002-0.001l10.021,99.595l14.595,8.426c2.797,1.615,6.244,1.615,9.041,0l72.447-41.83
						c5.27-3.043,8.268-8.892,7.661-14.947L349.296,96.523z"/>
					<path style="fill:#37474F;" d="M335.172,74.771l-6.511-3.759l-85.625,49.435l0.001,0.006l-0.002-0.001l2.059,19.606
						l99.018-57.168C341.772,79.622,338.747,76.836,335.172,74.771z"/>
					<path style="fill:#263238;" d="M249.545,124.211l-6.511-3.759l10.021,99.595l13.991,8.078c2.14,1.236,4.78-0.47,4.534-2.929
						l-7.911-79.233C262.715,136.869,257.464,128.782,249.545,124.211z"/>
				</g>
				<g>
					<g>
						<path style="fill:#455A64;" d="M346.941,70.119l-1.243-11.839c-0.679-6.462-5.508-14.171-10.786-17.219
							s-9.558-5.518-9.558-5.518l-86.019,49.664l3.701,35.24l9.558,5.518c2.415,1.394,4.498,1.559,5.991,0.722l0.005,0.012
							l86.019-49.664l-0.006-0.012C346.372,76.031,347.309,73.625,346.941,70.119z"/>
						<path style="fill:#263238;" d="M239.334,85.207c0,0,4.279,2.471,9.558,5.518c5.279,3.048,10.108,10.757,10.786,17.219
							l1.243,11.839c0.679,6.462-3.05,9.23-8.329,6.182l-9.558-5.518L239.334,85.207z"/>
					</g>
					<path style="fill:#EBEBEB;" d="M259.042,73.83l5.965,3.444c5.317,3.07,9.038,8.297,10.198,14.326l2.951,15.339l52.567-30.35
						l-2.951-15.338c-1.16-6.029-4.882-11.257-10.199-14.327l-5.964-3.443L259.042,73.83z"/>
				</g>
			</g>
		</g>
		<g id="Character_3_">
			<g id="Bottom_3_">
				<g>
					<path id="XMLID_622_" style="fill:#FFA8A7;" d="M396.063,283.905c0,0-7.336,17.15-7.81,23.956
						c-0.494,7.091-2.249,9.414-1.176,17.155c0.234,1.685,1.06,5.072,1.257,6.441c0.176,1.219-0.297,2.189-1.866,2.487
						c-3.091,0.587-8.109-5.286-10.438-11.623c-2.328-6.337-5.539-20.597-5.725-22.301c-0.18-1.643,0.4-3.674,1.059-4.953
						c1.155-2.244,1.459-2.549,1.459-2.549c1.072-3.073,1.66-8.939,2.587-12.988L396.063,283.905z"/>
					<g>
						<path style="fill:#263238;" d="M364.172,306.388c0,0-0.801,1.405-0.864,2.312c-0.097,1.415,3.021,6.133,4.247,7.853
							c1.225,1.72,2.417,3.868,2.173,8.108c-0.26,4.53,1.668,8.927,4.532,12.714c2.863,3.787,7.873,7.966,15.312,10.393
							c7.438,2.427,10.138-1.275,10.138-1.275s2.38-3.569,1.011-5.071C399.352,339.921,364.172,306.388,364.172,306.388z"/>
						<path id="XMLID_618_" style="fill:#BA68C8;" d="M372.823,292.518c-0.227-0.012-0.628-0.083-1.226,0.613
							c-0.227,0.264-1.647,3.603-2.809,5.349c-1.243,1.869-4.187,5.047-4.616,7.908c1.638,5.572,6.773,9.517,7.465,14.764
							c0.693,5.247,0.678,11.322,8.613,17.863c7.935,6.54,16.193,7.341,19.194,5.696c3.001-1.645,2.782-4.834-1.258-10.968
							c-4.289-6.511-7.016-20.507-7.017-20.513c-0.377-1.937-0.555-3.977-0.677-5.945c-0.118-1.913,0.472-3.943,0.654-5.861
							c0.086-0.907,0.138-1.883-0.33-2.665c-0.468-0.782-1.353-1.197-2.186-1.567c-1.332-0.592-2.678-1.188-4.107-1.469
							c-1.43-0.281-2.972-0.225-4.267,0.444c-0.936,0.484-1.708,1.265-2.688,1.652c-1.314,0.518-2.917,0.204-3.938-0.772
							c-1.505-1.439-1.258-2.708-1.007-3.648C372.596,293.368,372.823,292.518,372.823,292.518z"/>
						<path id="XMLID_344_" style="opacity:0.4;" d="M372.823,292.518c-0.227-0.012-0.628-0.083-1.226,0.613
							c-0.227,0.264-1.647,3.603-2.809,5.349c-1.243,1.869-4.187,5.047-4.616,7.908c1.638,5.572,6.773,9.517,7.465,14.764
							c0.693,5.247,0.678,11.322,8.613,17.863c7.935,6.54,16.193,7.341,19.194,5.696c3.001-1.645,2.782-4.834-1.258-10.968
							c-4.289-6.511-7.016-20.507-7.017-20.513c-0.377-1.937-0.555-3.977-0.677-5.945c-0.118-1.913,0.472-3.943,0.654-5.861
							c0.086-0.907,0.138-1.883-0.33-2.665c-0.468-0.782-1.353-1.197-2.186-1.567c-1.332-0.592-2.678-1.188-4.107-1.469
							c-1.43-0.281-2.972-0.225-4.267,0.444c-0.936,0.484-1.708,1.265-2.688,1.652c-1.314,0.518-2.917,0.204-3.938-0.772
							c-1.505-1.439-1.258-2.708-1.007-3.648C372.596,293.368,372.823,292.518,372.823,292.518z"/>
						<path style="fill:#FAFAFA;" d="M375.637,333.801c0,0,3.223-6.284,11.762-6.107c8.539,0.177,11.421,4.572,12.677,7.149
							c1.496,3.069,3.015,8.612-0.536,10.136c-3.836,1.646-8.236,1.043-15.113-2.55C377.55,338.835,375.637,333.801,375.637,333.801
							z"/>
						<g>
							<path style="fill:#FAFAFA;" d="M377.626,308.103c0.24,0.119,0.529,0.132,0.779,0.009c1.331-0.65,8.335-1.993,12.337,1.848
								c0.533-0.414,0.439-1.188-0.216-2.287c-4.707-3.102-11.337-1.864-12.942-1.078c-0.421,0.206-0.577,0.713-0.35,1.13
								C377.325,307.895,377.464,308.022,377.626,308.103z"/>
							<path style="fill:#FAFAFA;" d="M391.536,314.952c0.306-0.751-0.042-1.924-0.453-2.355c-4.649-2.626-10.809-1.456-12.35-0.704
								c-0.421,0.205-0.576,0.711-0.35,1.129c0.092,0.17,0.231,0.297,0.392,0.378c0.24,0.12,0.529,0.132,0.779,0.01
								C380.848,312.779,387.491,311.513,391.536,314.952z"/>
							<path style="fill:#FAFAFA;" d="M394.825,326.55c0.054-1.044-0.302-2.086-1.04-3.109c-4.692-2.938-11.168-1.726-12.752-0.952
								c-0.421,0.206-0.577,0.713-0.35,1.13c0.092,0.17,0.231,0.297,0.393,0.378c0.24,0.119,0.529,0.132,0.779,0.01
								C383.259,323.32,390.982,321.867,394.825,326.55z"/>
							<path style="fill:#FAFAFA;" d="M379.925,318.699c0.24,0.12,0.529,0.132,0.779,0.009c1.316-0.643,8.176-1.951,12.198,1.728
								c0.199-0.788-0.01-1.643-0.67-2.541c-4.651-2.626-10.81-1.457-12.35-0.704c-0.421,0.205-0.577,0.712-0.35,1.129
								C379.624,318.491,379.763,318.618,379.925,318.699z"/>
						</g>
					</g>
				</g>
				<g id="XMLID_610_">
					<path id="XMLID_614_" style="fill:#FFA8A7;" d="M402.398,306.109c0,0,4.642,20.921,8.768,28.976
						c4.126,8.055,6.239,11.939,11.772,17.961c1.205,1.311,3.932,3.733,4.917,4.794c0.877,0.944,1.048,2.06-0.125,3.25
						c-2.31,2.346-12.376,3.187-18.153-0.88c-5.777-4.066-11.192-12.935-14.664-16.243c-1.304-1.243-2.535-2.517-3.71-3.873
						c-1.133-1.307-0.872-2.59-1.014-4.088c-0.068-0.724-0.023-2.708-0.023-2.708c-0.878-3.523-3.137-9.024-4.351-12.446
						L402.398,306.109z"/>
					<g>
						<path style="fill:#263238;" d="M388.651,349.267c0,0-0.052,1.691,0.336,2.561c0.604,1.356,5.801,4.188,7.777,5.176
							c1.977,0.989,4.132,2.39,5.985,6.428c1.981,4.315,5.92,7.434,10.424,9.53c4.504,2.096,11.185,3.502,19.251,2.098
							c8.066-1.405,8.746-6.151,8.746-6.151s0.449-4.466-1.553-5.183C437.615,363.01,388.651,349.267,388.651,349.267z"/>
						<path id="XMLID_613_" style="fill:#BA68C8;" d="M389.844,332.204c-0.216,0.1-0.621,0.231-0.832,1.167
							c-0.08,0.355,0.245,4.138,0.027,6.322c-0.233,2.337-1.395,6.719-0.389,9.573c4.246,4.348,10.928,5.476,14.141,9.986
							c3.213,4.51,6.18,10.133,16.723,12.287c10.542,2.153,18.568-1.156,20.535-4.148c1.967-2.992,0.201-5.833-6.542-9.522
							c-7.158-3.915-16.543-15.515-16.547-15.52c-1.299-1.605-2.464-3.404-3.541-5.163c-1.048-1.71-1.497-3.877-2.27-5.738
							c-0.366-0.881-0.796-1.808-1.613-2.302c-0.817-0.493-1.837-0.442-2.789-0.376c-1.521,0.106-3.058,0.215-4.517,0.656
							c-1.46,0.441-2.858,1.25-3.726,2.503c-0.629,0.906-0.958,2.007-1.675,2.845c-0.96,1.123-2.596,1.619-4.018,1.217
							c-2.097-0.592-2.49-1.886-2.72-2.878C390.051,333.101,389.844,332.204,389.844,332.204z"/>
						<path id="XMLID_341_" style="opacity:0.4;" d="M389.844,332.204c-0.216,0.1-0.621,0.231-0.832,1.167
							c-0.08,0.355,0.245,4.138,0.027,6.322c-0.233,2.337-1.395,6.719-0.389,9.573c4.246,4.348,10.928,5.476,14.141,9.986
							c3.213,4.51,6.18,10.133,16.723,12.287c10.542,2.153,18.568-1.156,20.535-4.148c1.967-2.992,0.201-5.833-6.542-9.522
							c-7.158-3.915-16.543-15.515-16.547-15.52c-1.299-1.605-2.464-3.404-3.541-5.163c-1.048-1.71-1.497-3.877-2.27-5.738
							c-0.366-0.881-0.796-1.808-1.613-2.302c-0.817-0.493-1.837-0.442-2.789-0.376c-1.521,0.106-3.058,0.215-4.517,0.656
							c-1.46,0.441-2.858,1.25-3.726,2.503c-0.629,0.906-0.958,2.007-1.675,2.845c-0.96,1.123-2.596,1.619-4.018,1.217
							c-2.097-0.592-2.49-1.886-2.72-2.878C390.051,333.101,389.844,332.204,389.844,332.204z"/>
						<path style="fill:#FAFAFA;" d="M412.692,368.985c0,0-0.103-7.389,7.877-11.414c7.98-4.025,12.8-1.376,15.225,0.391
							c2.888,2.103,7.011,6.482,4.475,9.632c-2.739,3.403-7.101,5.003-15.221,5.054C416.93,372.699,412.692,368.985,412.692,368.985
							z"/>
						<g>
							<path style="fill:#FAFAFA;" d="M401.928,344.255c0.28-0.007,0.554-0.137,0.725-0.374c0.911-1.253,6.727-5.929,12.31-4.342
								c0.29-0.644-0.176-1.313-1.322-2.008c-5.872-0.559-11.393,3.836-12.492,5.35c-0.288,0.397-0.184,0.942,0.23,1.216
								C401.547,344.21,401.738,344.259,401.928,344.255z"/>
							<path style="fill:#FAFAFA;" d="M418.145,343.763c-0.086-0.844-0.982-1.758-1.574-1.954
								c-5.585-0.147-10.705,3.955-11.761,5.406c-0.288,0.397-0.184,0.94,0.23,1.216c0.168,0.112,0.359,0.162,0.548,0.157
								c0.281-0.007,0.553-0.137,0.725-0.373C407.199,346.997,412.719,342.568,418.145,343.763z"/>
							<path style="fill:#FAFAFA;" d="M426.873,352.871c-0.462-0.991-1.302-1.78-2.486-2.364
								c-5.778-0.414-11.169,3.882-12.254,5.374c-0.288,0.396-0.184,0.942,0.23,1.216c0.168,0.112,0.359,0.161,0.548,0.157
								c0.281-0.008,0.553-0.137,0.725-0.374C414.598,355.558,421.023,350.428,426.873,352.871z"/>
							<path style="fill:#FAFAFA;" d="M409.25,352.921c0.28-0.007,0.553-0.137,0.725-0.374c0.901-1.24,6.601-5.813,12.123-4.385
								c-0.203-0.827-0.815-1.514-1.865-2.02c-5.588-0.147-10.707,3.956-11.761,5.406c-0.288,0.396-0.184,0.941,0.23,1.216
								C408.869,352.876,409.06,352.926,409.25,352.921z"/>
						</g>
					</g>
				</g>
				<g>
					<path style="fill:#263238;" d="M359.537,190.472c16.488,5.99,36.034,15.241,48.678,26.065
						c3.652,3.127,7.931,8.319,6.818,19.432c-1.272,12.708-15.625,56.271-15.625,56.271l-78.526-87.349L359.537,190.472z"/>
					<path d="M396.818,278.835c-11.378-8.78-49.157-63.567-49.157-63.567s1.468-0.371,1.477-0.38
						c7.815-4.359,9.582-14.517,9.582-14.517c1.401,4.417-0.774,10.744-3.184,14.433c2.897,2.317,17.073,13.417,28.414,21.699
						c2.844,2.077,5.77,4.665,6.908,9.598C393.587,257.928,396.984,276.416,396.818,278.835z"/>
				</g>
				<g id="XMLID_605_">
					<path style="fill:#263238;" d="M352.871,187.556L352.871,187.556l-63.087,14.011c3.311,17.162,6.652,21.444,9.413,25.003
						c4.123,5.315,5.812,8.064,21.178,17.028c17.865,10.421,34.497,18.631,38.303,20.303c2.868,1.261,3.995,8.335,5.493,15.628
						c1.57,7.651,3.374,11.315,11.465,27.227c7.921,15.581,10.915,17.171,10.915,17.171s11.561,0.853,19.009-6.106
						c0,0-12.059-53.874-14.576-63.562c-1.406-5.411-1.815-10.18-8.759-15.964c-5.953-4.959-33.088-23.408-33.088-23.408
						S359.955,202.279,352.871,187.556z"/>
				</g>
			</g>
			<g id="Top_3_">
				<g>
					<g>
						<path style="fill:#FFA8A7;" d="M344.497,108.534c7.815,2.118,9.93,2.695,15.941,9.888
							c6.906,8.263,21.504,23.904,21.504,23.904s14.943-16.46,17.321-21.009c1.316-2.518,0.233-9.348-0.167-16.058
							c-0.134-2.255-0.652-2.08,1.61-8.742c1.189-3.501,2.105-4.459,2.105-4.459s0.776,0.095,1.11,0.71c0,0,1.607-3.197,2.075-3.635
							c0.553-0.518,1.363-0.098,1.923,0.542c0.61-0.899,1.025-1.761,1.428-1.637c1.926,0.592,1.862,2.889,1.862,3.851
							c2.093,0.283,1.993,2.719,1.85,3.66c-0.551,3.626-0.944,5.513-1.204,7.23c-0.296,1.955,0.057,9.86,1.073,8.796
							c1.087-1.139,1.422-4.1,3.137-5.51c1.505-1.237,2.793-0.304,2.759,0.706c-0.052,1.534-0.736,3.932-1.064,7.275
							c-0.303,3.092-0.799,5.851-2.444,9.484c-1.112,2.455-2.894,4.187-4.292,6.195c-4.248,6.103-16.326,29.048-21.43,33.745
							c-2.713,2.497-6.22,4.609-14.792-2.175c-8.572-6.785-26.219-22.845-26.219-22.845L344.497,108.534z"/>
						<path style="fill:#F28F8F;" d="M411.82,107.139l-0.002-0.007c0,0-0.406,4.05-0.182,5.021c0.223,0.971,0.609,0.834,1.292-0.578
							C412.327,112.204,411.961,109.697,411.82,107.139z"/>
						<path style="fill:#F28F8F;" d="M411.209,91.889c-0.396,0.02-0.695,0.297-0.89,0.606c-0.199,0.315-0.337,0.668-0.456,1.027
							c-0.246,0.716-0.427,1.457-0.605,2.201l-1.07,4.466l-0.539,2.229c-0.187,0.755-0.308,1.461-0.337,2.226
							c-0.074,1.522-0.085,3.058-0.148,4.592c-0.165-1.529-0.26-3.06-0.274-4.603c-0.04-0.773,0.112-1.584,0.271-2.321l0.495-2.252
							c0.383-1.487,0.752-2.976,1.197-4.448c0.229-0.734,0.456-1.472,0.761-2.188c0.161-0.354,0.342-0.704,0.588-1.015
							C410.436,92.1,410.813,91.844,411.209,91.889z"/>
						<path style="fill:#F28F8F;" d="M407.919,89.674c-0.514,1.442-1.081,2.853-1.656,4.26c-0.277,0.707-0.59,1.4-0.887,2.099
							c-0.143,0.349-0.316,0.698-0.433,1.046c-0.104,0.351-0.194,0.722-0.28,1.09c-0.377,1.469-0.691,2.961-1.017,4.445
							c-0.08,0.37-0.162,0.743-0.224,1.111c-0.057,0.354-0.036,0.751-0.061,1.125c-0.046,0.758-0.072,1.519-0.135,2.282
							c-0.062-0.761-0.089-1.525-0.134-2.292c-0.004-0.387-0.05-0.756-0.014-1.16c0.039-0.388,0.097-0.764,0.153-1.144
							c0.242-1.512,0.56-3.004,0.9-4.499c0.095-0.372,0.193-0.741,0.314-1.118c0.133-0.371,0.31-0.703,0.463-1.056
							c0.321-0.695,0.625-1.397,0.965-2.084C406.532,92.398,407.199,91.021,407.919,89.674z"/>
						<path style="fill:#F28F8F;" d="M403.921,92.767c-0.33,1.169-0.737,2.31-1.125,3.453c-0.404,1.153-0.79,2.247-1.076,3.431
							c-0.307,1.162-0.601,2.324-0.727,3.503c-0.125,1.183-0.054,2.399-0.143,3.611c-0.12-1.204-0.303-2.404-0.259-3.637
							c0.024-1.238,0.309-2.439,0.604-3.615c0.27-1.172,0.713-2.354,1.186-3.453C402.864,94.948,403.363,93.846,403.921,92.767z"/>
					</g>
					<g>
						<path style="fill:#BA68C8;" d="M341.547,107.132c3.699,0.754,10.579,2.112,15.33,6.629
							c4.75,4.517,25.362,27.721,25.362,27.721l16.289-19.1c0,0,0.601,3.587,4.365,6.892c3.764,3.305,6.418,3.667,6.418,3.667
							s-7.164,13.738-13.4,23.21c-6.236,9.472-8.623,10.721-11.652,10.693c-3.029-0.028-6.388-2.343-11.18-5.912
							c-4.792-3.57-26.73-22.407-26.73-22.407L341.547,107.132z"/>
						<path style="opacity:0.5;" d="M341.547,107.132c3.699,0.754,10.579,2.112,15.33,6.629c4.75,4.517,25.362,27.721,25.362,27.721
							l16.289-19.1c0,0,0.601,3.587,4.365,6.892c3.764,3.305,6.418,3.667,6.418,3.667s-7.164,13.738-13.4,23.21
							c-6.236,9.472-8.623,10.721-11.652,10.693c-3.029-0.028-6.388-2.343-11.18-5.912c-4.792-3.57-26.73-22.407-26.73-22.407
							L341.547,107.132z"/>
						<path style="opacity:0.3;" d="M382.239,141.482c-4.338,5.315-5.515,7.969-5.534,11.246c-0.799-3.905-0.012-7.013,4.265-12.67
							L382.239,141.482z"/>
						<g>
							<path style="fill:#BA68C8;" d="M402.892,129.273c-3.763-3.304-4.365-6.892-4.365-6.892l-4.486,5.26
								c1.939,4.422,6.388,10.252,12.372,10.697c1.76-3.218,2.897-5.398,2.897-5.398S406.656,132.578,402.892,129.273z"/>
							<path style="opacity:0.7;" d="M402.892,129.273c-3.763-3.304-4.365-6.892-4.365-6.892l-4.486,5.26
								c1.939,4.422,6.388,10.252,12.372,10.697c1.76-3.218,2.897-5.398,2.897-5.398S406.656,132.578,402.892,129.273z"/>
						</g>
					</g>
				</g>
				<g>
					<path style="fill:#BA68C8;" d="M304.367,102.631c-0.169,2.66-1.596,5.296-6.895,8.461c-5.298,3.165-14.945,8.819-19.136,12.894
						c-0.698,4.075,0.661,22.754,2.155,35.653c1.494,12.899,8.135,45.189,10.715,52.27c9.569,3.209,35.96,4.984,52.703-4.998
						c16.743-9.983,15.628-16.438,15.628-16.438s-6.821-19.85-7.496-28.464c-0.675-8.613-1.854-41.252-5.502-49.239
						c-2.142-4.689-3.256-5.439-8.388-6.564c-5.132-1.125-14.135-2.199-14.135-2.199L304.367,102.631z"/>
					<path style="opacity:0.3;" d="M304.367,102.631c-0.169,2.66-1.596,5.296-6.895,8.461c-5.298,3.165-14.945,8.819-19.136,12.894
						c-0.698,4.075,0.661,22.754,2.155,35.653c1.494,12.899,8.135,45.189,10.715,52.27c9.569,3.209,35.96,4.984,52.703-4.998
						c16.743-9.983,15.628-16.438,15.628-16.438s-6.821-19.85-7.496-28.464c-0.675-8.613-1.854-41.252-5.502-49.239
						c-2.142-4.689-3.256-5.439-8.388-6.564c-5.132-1.125-14.135-2.199-14.135-2.199L304.367,102.631z"/>
				</g>
				<g id="Head_2_">
					<g>
						<g id="XMLID_324_">
							<g id="XMLID_340_">
								<path d="M342.113,58.713c-3.183-6.021-9.993-11.533-20.035-11.519c-12.257,0.017-22.592,5.877-22.491,13.803
									c-1.661-0.298-4.528,1.411-5.138,5.979c-0.331,2.481-0.754,8.381,1.877,15.67c2.623,7.265,4.959,10.415,5.939,12.542
									c0.98,2.128,2.323,2.479,2.323,2.479l2.339-9.113l-0.008-6.209c0,0,4.25-5.227,4.911-9.655
									c0.248-1.662,0.329-3.036,0.323-4.16l29.837,1.534C341.99,70.065,345.297,64.734,342.113,58.713z"/>
								<path style="fill:#FFA8A7;" d="M298.669,90.735c3.386,1.973,5.611,0.557,5.611,0.557l0.109,14.242
									c3.19,5.457,11.753,10.73,18.189,17.792c3.054,3.352,5.153,8.215,6.888,11.589c1.355-9.19-0.887-18.748-2.59-22.752
									l0.277-8.832c0,0,5.013,0.061,7.288-0.92c3.204-1.382,4.989-3.444,6.52-8.911c1.675-5.982,1.806-14.56,0.521-17.532
									c-0.13-2.398,0.817-5.9,0.516-8.404c-0.263-2.186-1.3-4.356-3.089-5.64c-5.536-3.975-13.658,1.71-20.94,2.514
									c-4.237,0.468-7.103-1.483-8.808-2.418c4.715,5.463,0.056,11.269-0.184,14.426c-0.198,2.604-1.254,4.512-1.774,4.922
									c-1.559,1.22-2.605-2.191-3.791-3.568c-1.197-1.366-5.835-2.782-8.084,1.423C293.054,83.505,294.564,88.342,298.669,90.735z
									"/>
							</g>
							<g id="XMLID_325_">
								<path id="XMLID_337_" style="fill:#37474F;" d="M323.075,71.799l-4.546,1.862c-0.488-1.3,0.135-2.772,1.39-3.286
									C321.175,69.862,322.587,70.499,323.075,71.799z"/>
								<path id="XMLID_336_" style="fill:#37474F;" d="M340.18,72.397l-4.724-1.478c0.362-1.331,1.713-2.078,3.018-1.67
									C339.778,69.657,340.542,71.066,340.18,72.397z"/>
								<path style="fill:#263238;" d="M320.386,76.656c0.016,1.105,0.925,1.989,2.03,1.973c1.105-0.016,1.989-0.925,1.973-2.03
									c-0.016-1.105-0.925-1.988-2.03-1.973C321.254,74.642,320.37,75.551,320.386,76.656z"/>
								<path style="fill:#263238;" d="M335.289,76.232c0.016,1.105,0.925,1.989,2.03,1.973c1.105-0.016,1.988-0.925,1.973-2.03
									c-0.016-1.105-0.925-1.989-2.03-1.973C335.99,74.22,335.271,74.961,335.289,76.232z"/>
								<path id="XMLID_335_" style="fill:#F28F8F;" d="M328.359,73.865l1.378,12.774l6.783-2.341
									C334.22,79.755,331.5,76.277,328.359,73.865z"/>
							</g>
						</g>
					</g>
					<path id="XMLID_320_" style="fill:#B16668;" d="M324.039,89.667l6.829,0.942c-0.216,1.945-1.919,3.311-3.806,3.051
						C325.176,93.4,323.823,91.612,324.039,89.667z"/>
					<path style="fill:#F28F8F;" d="M324.932,90.703c-0.287-0.009-0.563,0.022-0.832,0.073c0.288,1.473,1.445,2.675,2.962,2.884
						c0.38,0.052,0.749,0.023,1.103-0.048C328.153,92.057,326.736,90.763,324.932,90.703z"/>
					<path style="fill:#F28F8F;" d="M327.154,103.33c-5.606-0.601-10.864-1.935-13.412-4.041c-3.829-3.166-5.503-7.586-5.503-7.586
						s0.725,6.333,5.292,10.213c4.567,3.879,13.579,4.426,13.579,4.426L327.154,103.33z"/>
					<g>
						<path style="fill:#BA68C8;" d="M304.36,101.635l0.008,0.996c0.727,2.929,4.695,7.772,8.442,10.83
							c6.46,5.273,8.642,5.227,10.366,7.147c1.643,1.829,3.36,8.209,5.068,11.833c-1.899-2.265-4.678-8.269-5.907-6.993
							c-2.096,2.178-3.739,6.303-3.739,6.303s-8.415-3.604-14.363-10.929c-4.054-4.992-6.139-10.495-6.139-10.495
							s1.097-1.069,3.358-4.093C303.05,104.096,302.745,101.904,304.36,101.635z"/>
						<path style="fill:#BA68C8;" d="M329.828,131.184c2.665-6.876,3.694-9.476,4.026-9.549c0.333-0.074,2.255,4.349,2.255,4.349
							s-1.12-6.452-2.846-10.394c-1.726-3.942-6.119-11.584-6.119-11.584l-0.267,8.156
							C326.877,112.162,329.98,118.862,329.828,131.184z"/>
					</g>
				</g>
			</g>
		</g>
		<g>
			<g>
				<g>
					<path style="fill:#BA68C8;" d="M236.581,208.855c0-0.614,0.406-1.228,1.217-1.696l10.66-6.155c1.622-0.937,4.253-0.937,5.876,0
						l68.841,39.723c0.811,0.468,1.217,1.082,1.217,1.696c0,0.571,0,2.611,0,3.182c0,0.614-0.405,1.228-1.217,1.696l-10.66,6.155
						c-1.623,0.937-4.253,0.937-5.875,0l-68.841-39.722c-0.811-0.468-1.217-1.082-1.217-1.696
						C236.581,211.466,236.581,209.426,236.581,208.855z"/>
				</g>
				<g style="opacity:0.1;">
					<path d="M236.581,208.855c0-0.614,0.406-1.228,1.217-1.696l10.66-6.155c1.622-0.937,4.253-0.937,5.876,0l68.841,39.723
						c0.811,0.468,1.217,1.082,1.217,1.696c0,0.571,0,2.611,0,3.182c0,0.614-0.405,1.228-1.217,1.696l-10.66,6.155
						c-1.623,0.937-4.253,0.937-5.875,0l-68.841-39.722c-0.811-0.468-1.217-1.082-1.217-1.696
						C236.581,211.466,236.581,209.426,236.581,208.855z"/>
				</g>
				<g>
					<path style="fill:#BA68C8;" d="M237.797,207.159l10.66-6.155c1.622-0.937,4.253-0.937,5.876,0l55.244,31.872v21.282
						c-1.063,0-2.126-0.234-2.938-0.703l-68.841-39.722c-0.811-0.468-1.217-1.082-1.217-1.696c0-0.571,0-2.611,0-3.182
						C236.581,208.241,236.986,207.627,237.797,207.159z"/>
				</g>
				<g style="opacity:0.35;">
					<path d="M237.797,207.159l10.66-6.155c1.622-0.937,4.253-0.937,5.876,0l55.244,31.872v21.282c-1.063,0-2.126-0.234-2.938-0.703
						l-68.841-39.722c-0.811-0.468-1.217-1.082-1.217-1.696c0-0.571,0-2.611,0-3.182
						C236.581,208.241,236.986,207.627,237.797,207.159z"/>
				</g>
			</g>
			<path style="fill:#37474F;" d="M321.344,233.29c-3.996-2.307-53.521-30.88-65.39-37.73c-2.186-1.262-4.867-1.262-7.052,0.001
				c-1.705,0.985-3.852,2.224-6.035,3.481c-4.229,2.434-5.855,3.067-6.208,5.279c-0.053,0.334-0.078,4.118-0.078,4.535
				c0,0.614,0.406,1.228,1.217,1.696l68.841,39.722c1.623,0.937,4.253,0.937,5.876,0l10.66-6.154
				c0.811-0.468,1.217-1.082,1.217-1.696c0-0.404-0.006-4.186-0.022-4.524C324.258,235.51,323.668,234.632,321.344,233.29z"/>
			<path style="fill:#455A64;" d="M255.534,196.15l66.061,38.117c0.777,0.449,1.166,1.037,1.166,1.626
				c0,0.588-0.389,1.177-1.166,1.626l-9.907,5.72c-1.719,0.993-4.532,0.992-6.251,0l-66.061-38.117
				c-0.777-0.449-1.166-1.037-1.166-1.626c0-0.589,0.389-1.177,1.166-1.626l9.907-5.72
				C251.002,195.157,253.815,195.157,255.534,196.15z"/>
		</g>
		<g id="Arm">
			<g>
				<path style="fill:#FFA8A7;" d="M259.081,189.866c1.72-12.03,5.337-34.891,7.492-44.492c3.416-15.215,5.023-17.005,13.4-22.992
					c5.552,4.382,11.068,17.005,8.181,36.584l-8.088,35.45c0,0,4.707,3.973,13.784,12.032c8.927,7.926,18.127,15.113,27.779,22.131
					c0.865,0.629,1.748,1.276,2.346,2.162c0.62,0.919,2.74,5.681,3.303,7.019c0.349,0.829,0.687,1.828,0.789,2.366
					c0.168,0.885-0.132,1.754-0.395,3.16c-0.462,2.472-1.059,4.73-1.685,7.165c-0.136,0.53-0.306,1.1-0.747,1.424
					c-0.309,0.227-0.705,0.296-1.043,0.474c-0.642,0.339-1.007,1.022-1.422,1.618c-0.719,1.035-1.681,1.879-2.783,2.485
					c-1.192,0.655-2.097,0.345-2.992-0.712c-0.942-1.113-1.316-2.584-1.698-3.991c-0.737-2.712-1.609-5.388-2.611-8.014
					c-0.266-0.697-0.549-1.403-1.025-1.976c-0.567-0.684-1.366-1.128-2.155-1.536c-2.61-1.349-5.366-2.04-7.46-4.134
					c-1.8-1.801-2.935-5.111-5.12-6.513c-3.158-2.026-21.976-12.514-32.022-18.897C256.784,205.515,257.329,202.12,259.081,189.866z
					"/>
			</g>
			<path style="fill:#BA68C8;" d="M281.545,121.296c-3.657,1.866-9.505,6.103-10.809,7.886c-2.384,3.259-2.708,5.46-6.002,21.543
				c-3.295,16.082-6.094,39.146-7.068,46.317c-0.975,7.171-0.102,9.691,5.034,13.082c5.136,3.392,30.64,17.314,30.64,17.314
				s6.862-11.632,13.004-10.479l-25.156-23.099l8.336-36.772C289.523,157.087,295.036,135.865,281.545,121.296z"/>
			<path style="opacity:0.5;" d="M281.545,121.296c-3.657,1.866-9.505,6.103-10.809,7.886c-2.384,3.259-2.708,5.46-6.002,21.543
				c-3.295,16.082-6.094,39.146-7.068,46.317c-0.975,7.171-0.102,9.691,5.034,13.082c5.136,3.392,30.64,17.314,30.64,17.314
				s6.862-11.632,13.004-10.479l-25.156-23.099l8.336-36.772C289.523,157.087,295.036,135.865,281.545,121.296z"/>
			<path style="opacity:0.3;" d="M281.187,193.858c-2.617-0.931-11.548-0.567-13.804,2.999c2.123-5.214,9.277-6.464,14.344-5.379
				L281.187,193.858z"/>
			<g>
				<path style="fill:#BA68C8;" d="M289.115,225.12l5.352,2.973c0,0,1.433-4.473,5.148-7.633c3.715-3.159,7.637-2.779,7.637-2.779
					l-5.183-4.648c0,0-3.03-0.481-7.667,3.518C290.697,219.747,289.115,225.12,289.115,225.12z"/>
				<path style="opacity:0.7;" d="M289.115,225.12l5.352,2.973c0,0,1.433-4.473,5.148-7.633c3.715-3.159,7.637-2.779,7.637-2.779
					l-5.183-4.648c0,0-3.03-0.481-7.667,3.518C290.697,219.747,289.115,225.12,289.115,225.12z"/>
			</g>
		</g>
	</g>
</g>
<g id="Seats">
	<g id="Seat_1_">
		<g>
			<path style="fill:#EBEBEB;" d="M165.936,326.413l-7.399,4.272l2.985,29.28c0.33,3.232,2.877,7.169,5.691,8.793l53.048,30.604
				c1.525,0.88,3.03,0.909,4.18,0.241c0.972-0.564,6.242-3.604,7.391-4.268c0.976-0.563,1.697-1.626,1.961-3.094l4.339-24.17
				L165.936,326.413z"/>
			<path style="fill:#E0E0E0;" d="M161.522,359.965c0.329,3.232,2.877,7.169,5.691,8.793l53.048,30.604
				c2.813,1.624,5.56,0.349,6.134-2.849l4.339-24.17l-72.197-41.66L161.522,359.965z"/>
			<path style="opacity:0.1;" d="M161.522,359.965c0.329,3.232,2.877,7.169,5.691,8.793l53.048,30.604
				c2.813,1.624,5.56,0.349,6.134-2.849l4.339-24.17l-72.197-41.66L161.522,359.965z"/>
		</g>
		<g>
			<path style="fill:#EBEBEB;" d="M244.162,281.256l-7.399,4.272l2.985,29.28c0.33,3.232,2.877,7.169,5.691,8.793l53.048,30.604
				c1.525,0.88,3.03,0.909,4.18,0.241c0.972-0.564,6.242-3.604,7.392-4.268c0.976-0.563,1.697-1.626,1.961-3.094l4.339-24.169
				L244.162,281.256z"/>
			<path style="fill:#E0E0E0;" d="M239.748,314.808c0.329,3.232,2.877,7.169,5.691,8.793l53.048,30.604
				c2.813,1.624,5.56,0.349,6.134-2.849l4.339-24.169l-72.197-41.66L239.748,314.808z"/>
			<path style="opacity:0.1;" d="M239.748,314.808c0.329,3.232,2.877,7.169,5.691,8.793l53.048,30.604
				c2.813,1.624,5.56,0.349,6.134-2.849l4.339-24.169l-72.197-41.66L239.748,314.808z"/>
		</g>
		<g>
			<path style="fill:#455A64;" d="M319.92,291.769c0-10.218-5.451-19.661-14.301-24.77l-47.822-27.611l-19.116-11.037
				l-85.627,49.438l3.679,35.237l77.56,44.776l85.627-49.438L319.92,291.769z"/>
			<polygon style="fill:#37474F;" points="238.682,228.352 153.055,277.79 155.24,298.599 176.949,291.585 262.575,242.147 			"/>
			<path style="fill:#263238;" d="M153.055,277.79l66.938,38.647c8.849,5.109,14.301,14.551,14.301,24.77l0,16.596l-77.56-44.776
				L153.055,277.79z"/>
		</g>
		<g>
			<path style="fill:#455A64;" d="M249.296,154.267c-0.955-9.093-6.206-17.18-14.124-21.751l-6.511-3.759l-85.626,49.435
				l0.001,0.006l-0.002-0.001l10.021,99.595l14.595,8.426c2.797,1.615,6.244,1.615,9.041,0l72.447-41.83
				c5.27-3.043,8.268-8.892,7.661-14.947L249.296,154.267z"/>
			<path style="fill:#37474F;" d="M235.172,132.515l-6.511-3.759l-85.626,49.435l0.001,0.006l-0.002-0.001l2.059,19.606
				l99.018-57.168C241.773,137.366,238.748,134.58,235.172,132.515z"/>
			<path style="fill:#263238;" d="M149.546,181.954l-6.511-3.759l10.021,99.595l13.992,8.078c2.14,1.236,4.781-0.47,4.534-2.929
				l-7.911-79.233C162.715,194.613,157.464,186.526,149.546,181.954z"/>
		</g>
		<g>
			<path style="fill:#455A64;" d="M246.941,127.863l-1.243-11.839c-0.679-6.462-5.508-14.171-10.786-17.219
				c-5.279-3.048-9.558-5.518-9.558-5.518l-86.019,49.663l3.701,35.24l9.558,5.518c2.415,1.394,4.498,1.559,5.991,0.722l0.005,0.012
				l86.019-49.664l-0.006-0.012C246.373,133.775,247.309,131.369,246.941,127.863z"/>
			<path style="fill:#263238;" d="M139.334,142.951c0,0,4.279,2.471,9.558,5.518c5.279,3.048,10.108,10.757,10.786,17.219
				l1.243,11.839c0.678,6.462-3.05,9.23-8.329,6.182l-9.558-5.518L139.334,142.951z"/>
		</g>
		<g>
			<polygon style="fill:#BA68C8;" points="156.731,313.022 158.537,330.685 230.734,372.345 234.293,357.803 			"/>
			<polygon style="opacity:0.35;" points="156.731,313.022 158.537,330.685 230.734,372.345 234.293,357.803 			"/>
			<polygon style="fill:#BA68C8;" points="316.361,322.912 319.92,308.371 234.293,357.803 230.734,372.345 			"/>
			<polygon style="opacity:0.1;" points="316.361,322.912 319.92,308.371 234.293,357.803 230.734,372.345 			"/>
		</g>
		<path style="fill:#EBEBEB;" d="M159.043,131.574l5.965,3.444c5.317,3.07,9.038,8.297,10.198,14.326l2.951,15.338l52.567-30.35
			l-2.951-15.339c-1.16-6.029-4.882-11.257-10.199-14.326l-5.964-3.443L159.043,131.574z"/>
	</g>
	<g id="Seat">
		<g>
			<g>
				<g>
					<path style="fill:#BA68C8;" d="M136.581,266.597c0-0.614,0.406-1.228,1.217-1.696l10.66-6.155c1.622-0.937,4.253-0.937,5.876,0
						l68.842,39.722c0.811,0.468,1.217,1.082,1.217,1.696c0,0.571,0,2.611,0,3.182c0,0.614-0.406,1.228-1.217,1.696l-10.66,6.155
						c-1.623,0.937-4.253,0.937-5.875,0l-68.841-39.722c-0.811-0.469-1.217-1.082-1.217-1.696
						C136.581,269.208,136.581,267.168,136.581,266.597z"/>
				</g>
				<g style="opacity:0.1;">
					<path d="M136.581,266.597c0-0.614,0.406-1.228,1.217-1.696l10.66-6.155c1.622-0.937,4.253-0.937,5.876,0l68.842,39.722
						c0.811,0.468,1.217,1.082,1.217,1.696c0,0.571,0,2.611,0,3.182c0,0.614-0.406,1.228-1.217,1.696l-10.66,6.155
						c-1.623,0.937-4.253,0.937-5.875,0l-68.841-39.722c-0.811-0.469-1.217-1.082-1.217-1.696
						C136.581,269.208,136.581,267.168,136.581,266.597z"/>
				</g>
				<g>
					<path style="fill:#BA68C8;" d="M137.798,264.901l10.66-6.155c1.622-0.937,4.253-0.937,5.876,0l55.244,31.872V311.9
						c-1.063,0-2.127-0.234-2.938-0.703l-68.841-39.722c-0.811-0.469-1.217-1.082-1.217-1.696c0-0.571,0-2.611,0-3.182
						C136.581,265.983,136.986,265.37,137.798,264.901z"/>
				</g>
				<g style="opacity:0.35;">
					<path d="M137.798,264.901l10.66-6.155c1.622-0.937,4.253-0.937,5.876,0l55.244,31.872V311.9c-1.063,0-2.127-0.234-2.938-0.703
						l-68.841-39.722c-0.811-0.469-1.217-1.082-1.217-1.696c0-0.571,0-2.611,0-3.182
						C136.581,265.983,136.986,265.37,137.798,264.901z"/>
				</g>
			</g>
			<path style="fill:#37474F;" d="M221.344,291.033c-3.996-2.307-53.521-30.88-65.39-37.73c-2.186-1.262-4.867-1.262-7.052,0.001
				c-1.705,0.985-3.852,2.225-6.035,3.481c-4.229,2.434-5.855,3.067-6.208,5.279c-0.053,0.334-0.078,4.117-0.078,4.534
				c0,0.614,0.406,1.228,1.217,1.696l68.841,39.722c1.623,0.937,4.253,0.937,5.876,0l10.66-6.154
				c0.811-0.468,1.217-1.082,1.217-1.696c0-0.404-0.006-4.186-0.022-4.524C224.259,293.253,223.668,292.374,221.344,291.033z"/>
			<path style="fill:#455A64;" d="M155.535,253.892l66.061,38.117c0.777,0.449,1.166,1.037,1.166,1.626
				c0,0.588-0.389,1.177-1.166,1.626l-9.907,5.72c-1.719,0.993-4.532,0.993-6.251,0l-66.061-38.117
				c-0.777-0.449-1.166-1.037-1.166-1.626c0-0.589,0.389-1.177,1.166-1.626l9.907-5.72C151.003,252.9,153.816,252.9,155.535,253.892
				z"/>
		</g>
		<g>
			<g>
				<path style="fill:#EBEBEB;" d="M65.936,384.148l-7.399,4.272l2.985,29.28c0.33,3.232,2.877,7.169,5.691,8.793l53.048,30.604
					c1.525,0.88,3.03,0.909,4.18,0.241c0.972-0.564,6.242-3.604,7.392-4.268c0.976-0.563,1.697-1.626,1.961-3.094l4.339-24.17
					L65.936,384.148z"/>
				<path style="fill:#F5F5F5;" d="M61.522,417.7c0.33,3.232,2.877,7.169,5.691,8.793l53.048,30.604
					c2.813,1.624,5.559,0.349,6.134-2.849l4.339-24.17l-72.197-41.66L61.522,417.7z"/>
			</g>
			<g>
				<path style="fill:#EBEBEB;" d="M144.162,338.991l-7.399,4.272l2.985,29.28c0.33,3.232,2.877,7.169,5.691,8.793l53.048,30.604
					c1.525,0.88,3.03,0.909,4.18,0.241c0.972-0.564,6.242-3.604,7.392-4.268c0.976-0.563,1.697-1.626,1.961-3.094l4.339-24.17
					L144.162,338.991z"/>
				<path style="fill:#E0E0E0;" d="M139.749,372.543c0.329,3.232,2.877,7.169,5.691,8.793l53.048,30.604
					c2.814,1.624,5.56,0.349,6.134-2.849l4.339-24.169l-72.197-41.66L139.749,372.543z"/>
				<path style="opacity:0.1;" d="M139.749,372.543c0.329,3.232,2.877,7.169,5.691,8.793l53.048,30.604
					c2.814,1.624,5.56,0.349,6.134-2.849l4.339-24.169l-72.197-41.66L139.749,372.543z"/>
			</g>
			<g>
				<polygon style="fill:#BA68C8;" points="56.731,370.757 58.537,388.42 130.734,430.079 134.293,415.538 				"/>
				<polygon style="opacity:0.35;" points="56.731,370.757 58.537,388.42 130.734,430.079 134.293,415.538 				"/>
				<polygon style="fill:#BA68C8;" points="216.361,380.647 219.92,366.105 134.293,415.538 130.734,430.079 				"/>
				<polygon style="opacity:0.1;" points="216.361,380.647 219.92,366.105 134.293,415.538 130.734,430.079 				"/>
			</g>
		</g>
		<g>
			<g>
				<path style="fill:#455A64;" d="M219.92,349.504c0-10.218-5.451-19.661-14.301-24.77l-47.822-27.611l-19.116-11.037
					l-85.627,49.438l3.678,35.237l77.56,44.776L219.92,366.1L219.92,349.504z"/>
				<polygon style="fill:#37474F;" points="138.682,286.087 53.055,335.525 55.24,356.334 76.949,349.32 162.575,299.882 				"/>
				<path style="fill:#263238;" d="M53.055,335.525l66.938,38.647c8.849,5.109,14.301,14.552,14.301,24.77l0,16.596l-77.56-44.776
					L53.055,335.525z"/>
			</g>
			<g>
				<path style="fill:#455A64;" d="M149.296,212.002c-0.955-9.094-6.206-17.18-14.124-21.752l-6.511-3.759l-85.625,49.435
					l0.001,0.006l-0.002-0.001l10.021,99.595l14.595,8.426c2.797,1.615,6.244,1.615,9.041,0l72.448-41.83
					c5.27-3.043,8.268-8.892,7.661-14.947L149.296,212.002z"/>
				<path style="fill:#37474F;" d="M135.172,190.25l-6.511-3.759l-85.625,49.435l0.001,0.006l-0.002-0.001l2.059,19.606
					l99.018-57.168C141.773,195.101,138.748,192.315,135.172,190.25z"/>
				<path style="fill:#263238;" d="M49.546,239.689l-6.511-3.759l10.021,99.595l13.991,8.078c2.14,1.236,4.781-0.47,4.534-2.929
					l-7.911-79.233C62.715,252.348,57.464,244.261,49.546,239.689z"/>
			</g>
			<g>
				<g>
					<path style="fill:#455A64;" d="M146.941,185.598l-1.243-11.839c-0.678-6.462-5.508-14.171-10.786-17.219
						c-5.279-3.048-9.558-5.518-9.558-5.518l-86.019,49.663l3.701,35.24l9.558,5.518c2.415,1.394,4.498,1.559,5.991,0.722
						l0.006,0.012l86.019-49.664l-0.006-0.012C146.373,191.51,147.309,189.104,146.941,185.598z"/>
					<path style="fill:#263238;" d="M39.335,200.686c0,0,4.279,2.471,9.558,5.518c5.279,3.048,10.108,10.757,10.786,17.218
						l1.243,11.839c0.679,6.462-3.05,9.23-8.329,6.182l-9.558-5.518L39.335,200.686z"/>
				</g>
				<path style="fill:#EBEBEB;" d="M59.043,189.309l5.965,3.444c5.317,3.07,9.038,8.297,10.198,14.326l2.951,15.338l52.567-30.35
					l-2.951-15.339c-1.16-6.029-4.882-11.257-10.199-14.327l-5.964-3.443L59.043,189.309z"/>
			</g>
		</g>
		<g id="Backpack_1_">
			<path id="Shadow_70_" style="fill:#37474F;" d="M127.923,366.763c18.973-8.868,46.809-24.564,60.752-34.762
				c2.51-1.835,2.313-4.654-0.378-6.211l-25.718-14.792c-2.691-1.557-7.059-1.564-9.754-0.014
				c-11.168,6.425-49.509,28.397-60.676,34.825c-2.695,1.551-2.698,4.072-0.007,5.63l25.797,14.856
				C120.628,367.853,125.106,368.079,127.923,366.763z"/>
			<g id="Backpack_2_">
				<g>
					<path style="fill:#BA68C8;" d="M140.378,231.936c7.285-0.708,19.518,5.529,22.911,10.445
						c3.561,5.159,25.037,77.19,19.921,84.507c-6.42,9.183-42.118,29.071-59.031,29.973c-13.953,0.744-23.186-7.476-25.846-10.653
						c-4.359-5.205-12.17-80.511-8.787-87.186C95.028,248.205,131.096,232.838,140.378,231.936z"/>
					<path style="opacity:0.2;fill:#FFFFFF;" d="M140.378,231.936c7.285-0.708,19.518,5.529,22.911,10.445
						c3.561,5.159,25.037,77.19,19.921,84.507c-6.42,9.183-42.118,29.071-59.031,29.973c-13.953,0.744-23.186-7.476-25.846-10.653
						c-4.359-5.205-12.17-80.511-8.787-87.186C95.028,248.205,131.096,232.838,140.378,231.936z"/>
					<path style="opacity:0.1;" d="M90.479,297.464c-0.293-3.155-0.559-6.275-0.79-9.294c-0.092-1.207-0.179-2.399-0.26-3.57
						c-0.161-2.341-0.299-4.601-0.409-6.746c-0.055-1.072-0.103-2.115-0.144-3.125c-0.06-1.515-0.105-2.955-0.131-4.307
						c-0.026-1.352-0.034-2.614-0.023-3.774c0.004-0.386,0.01-0.762,0.018-1.125c0.074-3.267,0.328-5.563,0.804-6.502
						c0.155-0.306,0.342-0.616,0.544-0.929c0.067-0.102,0.141-0.206,0.212-0.31c0.146-0.211,0.302-0.423,0.467-0.637
						c0.097-0.124,0.195-0.249,0.298-0.375c0.165-0.2,0.343-0.401,0.524-0.604c0.115-0.128,0.222-0.255,0.343-0.383
						c0.272-0.289,0.562-0.581,0.865-0.873c0.195-0.189,0.405-0.378,0.613-0.568c0.138-0.126,0.275-0.252,0.418-0.379
						c0.233-0.206,0.474-0.412,0.721-0.62c0.12-0.101,0.244-0.203,0.367-0.304c0.275-0.226,0.552-0.452,0.841-0.678
						c6.952,1.923,7.688,1.559,7.891,1.654c0.435,0.202,7.69,3.274,8.859,12.499l6,37.237l0.58,3.538
						c0.708,4.943,12.813,50.113-3.074,48.76c-0.206-0.018-0.421-0.029-0.629-0.045c-10.931-2.47-14.953-7.289-17.055-9.8
						c-0.341-0.407-0.702-1.241-1.078-2.437c-0.15-0.479-0.303-1.015-0.457-1.605c-0.077-0.295-0.155-0.603-0.233-0.925
						c-0.234-0.964-0.472-2.044-0.711-3.225c-0.08-0.394-0.16-0.799-0.241-1.215c-1.204-6.238-2.447-14.898-3.541-24.194
						c-0.219-1.859-0.432-3.743-0.636-5.639c-0.137-1.264-0.27-2.532-0.4-3.802c-0.065-0.635-0.129-1.27-0.191-1.904
						C90.718,299.994,90.596,298.726,90.479,297.464z"/>
					<path style="opacity:0.4;" d="M88.833,263.273c0.125-2.069,0.356-3.546,0.713-4.25c5.483-10.817,41.551-26.185,50.832-27.087
						c7.285-0.708,19.517,5.529,22.911,10.445c0.551,0.799,1.517,3.144,2.734,6.56c-13.464,8.18-48.631,26.785-52.711,25.832
						c-5.014-1.172-23.959-10.913-24.468-11.482L88.833,263.273z"/>
					<g>
						<path style="fill:#BA68C8;" d="M137.037,315.365c7.215-3.899,23.018-14.128,27.475-16.506c2.102-1.122,3.979-1.09,5.3-0.434
							c0.752,0.374,3.36,1.702,4.033,2.004c1.121,0.504,1.871,1.446,2.061,2.53c1.378,7.864,2.096,11.095,2.327,14.913
							c0.158,2.612,0.006,4.957-3.771,8.037c-3.777,3.079-20.554,13.283-25.564,16.052c-4.718,2.608-9.864,4.671-12.282,3.376
							c-0.628-0.336-3.449-1.662-4.193-2.059c-0.719-0.384-1.196-1.065-1.345-2.121c-0.571-4.032-2.091-12.617-2.586-15.542
							C127.879,321.995,129.429,319.476,137.037,315.365z"/>
						<path style="opacity:0.3;" d="M137.037,315.365c7.215-3.899,23.018-14.128,27.475-16.506c2.102-1.122,3.979-1.09,5.3-0.434
							c0.752,0.374,3.36,1.702,4.033,2.004c1.121,0.504,1.871,1.446,2.061,2.53c1.378,7.864,2.096,11.095,2.327,14.913
							c0.158,2.612,0.006,4.957-3.771,8.037c-3.777,3.079-20.554,13.283-25.564,16.052c-4.718,2.608-9.864,4.671-12.282,3.376
							c-0.628-0.336-3.449-1.662-4.193-2.059c-0.719-0.384-1.196-1.065-1.345-2.121c-0.571-4.032-2.091-12.617-2.586-15.542
							C127.879,321.995,129.429,319.476,137.037,315.365z"/>
						<path style="opacity:0.4;" d="M132.914,324.344l-4.237-1.9c0.775-2.19,3.143-4.26,8.359-7.079
							c7.215-3.899,23.018-14.128,27.475-16.506c2.102-1.122,3.979-1.09,5.3-0.434c0.753,0.374,3.36,1.701,4.032,2.004
							c0.84,0.378,1.472,1.002,1.815,1.747L132.914,324.344z"/>
						<path style="fill:#BA68C8;" d="M175.905,302.958c1.378,7.864,2.096,11.095,2.327,14.913c0.158,2.612,0.006,4.957-3.771,8.037
							c-3.777,3.079-20.554,13.283-25.564,16.052c-6.128,3.388-12.997,5.878-13.651,1.26c-0.571-4.032-2.09-12.617-2.586-15.542
							c-0.613-3.619,0.937-6.137,8.544-10.249c7.215-3.899,23.018-14.128,27.475-16.506
							C172.446,298.913,175.493,300.605,175.905,302.958z"/>
						<path style="opacity:0.18;" d="M175.905,302.958c1.378,7.864,2.096,11.095,2.327,14.913c0.158,2.612,0.006,4.957-3.771,8.037
							c-3.777,3.079-20.554,13.283-25.564,16.052c-6.128,3.388-12.997,5.878-13.651,1.26c-0.571-4.032-2.09-12.617-2.586-15.542
							c-0.613-3.619,0.937-6.137,8.544-10.249c7.215-3.899,23.018-14.128,27.475-16.506
							C172.446,298.913,175.493,300.605,175.905,302.958z"/>
						<path style="fill:#BA68C8;" d="M128.677,322.444c0.577-2.107,4.555-0.848,5.724,1.857c1.169,2.705,1.51,6.358,2.064,7.529
							c0.554,1.171,39.857-22.247,40.866-23.541c0.465-0.596-0.827-7.211-2.477-8.347c-1.65-1.135-5.36-3.101-7.621-2.592
							c-2.261,0.509-26.091,14.889-30.776,17.431C131.771,317.323,128.137,319.874,128.677,322.444z"/>
						<path style="opacity:0.1;" d="M128.677,322.444c0.577-2.107,4.555-0.848,5.724,1.857c1.169,2.705,1.51,6.358,2.064,7.529
							c0.554,1.171,39.857-22.247,40.866-23.541c0.465-0.596-0.827-7.211-2.477-8.347c-1.65-1.135-5.36-3.101-7.621-2.592
							c-2.261,0.509-26.091,14.889-30.776,17.431C131.771,317.323,128.137,319.874,128.677,322.444z"/>
						<path style="fill:#37474F;" d="M149.052,328.805l-4.766,2.603c-0.573,0.313-1.226,0.083-1.451-0.51l-0.857-2.263
							c-0.185-0.49,0.047-1.106,0.516-1.369l4.773-2.68c0.566-0.318,1.209-0.094,1.429,0.497l0.881,2.366
							C149.76,327.937,149.523,328.548,149.052,328.805z"/>
						<path style="fill:#37474F;" d="M172.474,314.793l-4.766,2.603c-0.573,0.313-1.226,0.084-1.451-0.509l-0.857-2.263
							c-0.186-0.49,0.047-1.106,0.516-1.369l4.773-2.68c0.566-0.318,1.209-0.094,1.429,0.498l0.881,2.366
							C173.181,313.925,172.945,314.536,172.474,314.793z"/>
					</g>
					<path style="opacity:0.15;" d="M176.037,282.119c-1.529-5.697-2.477-9.591-4.014-14.356c-2.199-1.258-5.233-2.821-5.233-2.821
						c-5.782,2.06-11.563,4.12-17.345,6.18c-5.409,1.927-10.818,3.854-16.228,5.782c-1.229,0.438-2.457,0.876-3.686,1.313
						c-1.15,0.41-2.285,1.12-3.44,1.444c-2.984,0.838-7.759-1.255-10.247-2.771c-2.487-1.515-4.053-2.978-7.051-3.457
						c0.924,5.197,1.893,10.39,2.906,15.578c0.954,4.881,1.524,9.845,3.849,14.428c1.387,2.421,3.389,4.138,6.348,4.689
						c3.258,0.606,6.631,0.221,9.783-0.366c0,0,0.899,4.375,1.656,6.529c0.969,1.895,4.222,3.373,4.667,3.252
						c2.76-0.75,1.605-12.652,1.605-12.652l20.234-10.98c0,0,1.176,4.254,2.062,6.317c1.351,1.619,3.801,3.369,4.61,3.154
						c3.486-0.924,0.688-13.681,0.688-13.681S173.283,286.309,176.037,282.119z"/>
					<path style="fill:#BA68C8;" d="M141.132,231.871c8.014-0.684,17.596,3.309,22.611,8.658
						c5.015,5.348,13.655,32.779,11.482,37.905c-2.139,5.045-22.91,17.371-35.623,23.515c-10.16,4.91-15.805,3.992-20.234,2.22
						c-3.335-1.334-3.901-6.002-4.661-9.453c-1.954-8.876-4.919-24.818-11.749-29.542c-6.83-4.724-12.97-5.983-14.116-1.884
						c0,0-2.749-5.784,8.613-12.563C116.29,239.492,131.268,232.715,141.132,231.871z"/>
					<path style="opacity:0.1;" d="M141.132,231.871c8.014-0.684,17.596,3.309,22.611,8.658
						c5.015,5.348,13.655,32.779,11.482,37.905c-2.139,5.045-22.91,17.371-35.623,23.515c-10.16,4.91-15.805,3.992-20.234,2.22
						c-3.335-1.334-3.901-6.002-4.661-9.453c-1.954-8.876-4.919-24.818-11.749-29.542c-6.83-4.724-12.97-5.983-14.116-1.884
						c0,0-2.749-5.784,8.613-12.563C116.29,239.492,131.268,232.715,141.132,231.871z"/>
					<g id="XMLID_8295_">
						<path id="XMLID_8300_" style="fill:#FAFAFA;" d="M148.996,257.392l-7.998-3.687c-0.821-0.378-1.794-0.106-2.175,0.609
							l-6.635,12.449c-0.381,0.715-0.028,1.606,0.789,1.991l7.908,3.728c0.817,0.385,1.79,0.119,2.173-0.594l6.729-12.519
							C150.171,258.655,149.817,257.77,148.996,257.392z"/>
						<path id="XMLID_8299_" style="fill:#37474F;" d="M142.123,271.042l6.377-11.864c0.192-0.357,0.015-0.799-0.395-0.988
							l-7.251-3.344c-0.41-0.189-0.897-0.053-1.088,0.304l-6.295,11.812c-0.191,0.357-0.014,0.803,0.395,0.996l7.171,3.381
							C141.445,271.531,141.932,271.398,142.123,271.042z"/>
						<g id="XMLID_8296_">
							<path id="XMLID_8298_" style="fill:#BA68C8;" d="M143.191,265.427L143.191,265.427c0.38-0.219,0.659-0.688,0.624-1.047
								l-0.54-5.573c-0.035-0.359-0.37-0.473-0.75-0.254l0,0c-0.379,0.219-0.659,0.688-0.624,1.047l0.54,5.573
								C142.476,265.532,142.812,265.646,143.191,265.427z"/>
							<path id="XMLID_8297_" style="fill:#BA68C8;" d="M139.361,267.638L139.361,267.638c0.379-0.219,0.659-0.688,0.624-1.047
								l-0.54-5.573c-0.035-0.359-0.371-0.473-0.75-0.254l0,0c-0.38,0.219-0.659,0.688-0.624,1.047l0.54,5.573
								C138.646,267.743,138.982,267.857,139.361,267.638z"/>
						</g>
					</g>
					<g>
						<path style="fill:#455A64;" d="M136.689,286.885l-6.738,3.063c0,0,3.754,15.571,5.01,23.266c0,0,2.217,3.17,3.867,3.581
							c1.649,0.41,3.068-3.473,2.945-6.282C141.651,307.704,138.553,293.482,136.689,286.885z"/>
						<path style="fill:#37474F;" d="M137.148,288.393l-6.89,2.895c-0.829,0.348-1.68-0.043-1.892-0.869l-0.809-3.151
							c-0.175-0.681,0.238-1.48,0.917-1.775l6.912-2.997c0.819-0.356,1.658,0.027,1.865,0.849l0.825,3.292
							C138.247,287.317,137.829,288.107,137.148,288.393z"/>
						<path style="fill:#E0E0E0;" d="M137.753,307.533c-1.034,0.497-1.723,1.8-1.538,2.91c0.185,1.11,1.177,1.632,2.217,1.165
							c1.04-0.466,1.729-1.769,1.539-2.909C139.78,307.557,138.787,307.036,137.753,307.533z"/>
					</g>
					<g>
						<path style="fill:#455A64;" d="M164.389,272.909l-6.534,3.38c0,0,3.522,15.39,5.218,23.038c0,0,2.391,3.073,4.057,3.407
							c1.666,0.335,2.855-3.62,2.57-6.428C169.416,293.499,166.626,279.429,164.389,272.909z"/>
						<path style="fill:#37474F;" d="M164.932,274.397l-6.694,3.219c-0.805,0.387-1.675,0.035-1.934-0.783l-0.987-3.118
							c-0.213-0.674,0.152-1.494,0.811-1.82l6.71-3.323c0.796-0.394,1.654-0.05,1.906,0.765l1.012,3.258
							C165.965,273.269,165.594,274.079,164.932,274.397z"/>
						<path style="fill:#E0E0E0;" d="M165.525,293.508c-1.001,0.546-1.612,1.883-1.364,2.986c0.248,1.103,1.267,1.579,2.275,1.064
							c1.009-0.515,1.619-1.852,1.364-2.986C167.545,293.438,166.527,292.962,165.525,293.508z"/>
					</g>
					<g>
						<path style="fill:#BA68C8;" d="M86.518,314.485c0.405-0.234,6.121-5.06,6.811-5.458c1.215-0.701,22.012,9.406,24.076,11.236
							c1.435,1.273,2.849,22.575,2.341,24.141c-0.183,0.564-6.629,4.897-6.811,5.458c-0.508,1.566-22.395-8.651-24.092-11.405
							C87.146,335.705,84.732,315.516,86.518,314.485z"/>
						<path style="opacity:0.18;" d="M86.518,314.485c0.405-0.234,6.121-5.06,6.811-5.458c1.215-0.701,22.012,9.406,24.076,11.236
							c1.435,1.273,2.849,22.575,2.341,24.141c-0.183,0.564-6.629,4.897-6.811,5.458c-0.508,1.566-22.395-8.651-24.092-11.405
							C87.146,335.705,84.732,315.516,86.518,314.485z"/>
						<path style="fill:#BA68C8;" d="M110.593,325.722c1.436,1.273,2.85,22.575,2.342,24.141
							c-0.508,1.566-22.395-8.651-24.092-11.405c-1.697-2.753-4.11-22.943-2.325-23.973
							C87.732,313.784,108.529,323.892,110.593,325.722z"/>
						<path style="opacity:0.4;" d="M93.324,309.032c-0.684,0.389-6.397,5.224-6.8,5.452c1.206-0.697,22.006,9.411,24.065,11.234
							l6.813-5.452C115.342,318.43,94.542,308.322,93.324,309.032z"/>
						<path style="opacity:0.3;" d="M110.593,325.722c1.436,1.273,2.85,22.575,2.342,24.141
							c-0.508,1.566-22.395-8.651-24.092-11.405c-1.697-2.753-4.11-22.943-2.325-23.973
							C87.732,313.784,108.529,323.892,110.593,325.722z"/>
						<path style="fill:#BA68C8;" d="M117.401,320.266c-1.538-0.722-5.45,1.633-7.055,3.186c-1.605,1.553-2.549,8.34-7.096,9.751
							c-4.547,1.411-12.067-3.696-14.022-7.188c-1.955-3.492-4.786-10.925-2.925-13.799c1.862-2.874,5.614-4.647,9.2-3.278
							C99.09,310.306,116.482,316.985,117.401,320.266z"/>
						<path style="opacity:0.2;" d="M117.401,320.266c-1.538-0.722-5.45,1.633-7.055,3.186c-1.605,1.553-2.549,8.34-7.096,9.751
							c-4.547,1.411-12.067-3.696-14.022-7.188c-1.955-3.492-4.786-10.925-2.925-13.799c1.862-2.874,5.614-4.647,9.2-3.278
							C99.09,310.306,116.482,316.985,117.401,320.266z"/>
						<path style="fill:#37474F;" d="M96.65,324.819c1.125,0.435,2.061,1.69,2.093,2.804c0.031,1.114-0.855,1.69-1.98,1.287
							c-1.124-0.403-2.061-1.659-2.092-2.804C94.64,324.96,95.526,324.384,96.65,324.819z"/>
					</g>
				</g>
				<g>
					<path id="XMLID_8268_" style="fill:#37474F;" d="M110.88,250.52c-1.113,0.642-4.656-0.766-5.239-1.506
						c-0.583-0.74-1.349-7.288,0.834-10.981c2.183-3.694,17.386-10.814,21.348-10.437c3.962,0.376,7.1,3.047,7.678,3.965
						c0.578,0.918,1.701,6.996,0.802,8.269c-0.9,1.273-4.702-0.533-5.071-1.059c-0.369-0.527,0.711-5.013-1.937-5.867
						c-2.402-0.775-13.017,3.76-17.193,7.287c-1.807,1.526-1.354,5.196-1.093,7.009S111.445,250.194,110.88,250.52z"/>
					<path id="XMLID_8205_" style="fill:#263238;" d="M128.33,232.826c2.77-0.322,5.419-0.179,6.336,2.329
						c0.917,2.508,0.893,4.785,0.496,5.119c-1.466-0.005-3.655-1.111-3.931-1.504c-0.369-0.527,0.711-5.013-1.937-5.867
						C129.052,232.825,128.723,232.803,128.33,232.826L128.33,232.826z"/>
				</g>
			</g>
		</g>
		<g>
			<g>
				<g>
					<path style="fill:#BA68C8;" d="M36.581,324.334c0-0.614,0.406-1.228,1.217-1.696l10.66-6.155c1.622-0.937,4.253-0.937,5.876,0
						l68.841,39.723c0.811,0.468,1.217,1.082,1.217,1.696c0,0.571,0,2.611,0,3.182c0,0.614-0.406,1.228-1.217,1.696l-10.66,6.155
						c-1.623,0.937-4.253,0.937-5.876,0l-68.841-39.722c-0.811-0.469-1.217-1.082-1.217-1.696
						C36.581,326.945,36.581,324.905,36.581,324.334z"/>
				</g>
				<g style="opacity:0.1;">
					<path d="M36.581,324.334c0-0.614,0.406-1.228,1.217-1.696l10.66-6.155c1.622-0.937,4.253-0.937,5.876,0l68.841,39.723
						c0.811,0.468,1.217,1.082,1.217,1.696c0,0.571,0,2.611,0,3.182c0,0.614-0.406,1.228-1.217,1.696l-10.66,6.155
						c-1.623,0.937-4.253,0.937-5.876,0l-68.841-39.722c-0.811-0.469-1.217-1.082-1.217-1.696
						C36.581,326.945,36.581,324.905,36.581,324.334z"/>
				</g>
				<g>
					<path style="fill:#BA68C8;" d="M37.798,322.638l10.66-6.155c1.622-0.937,4.253-0.937,5.876,0l55.244,31.872v21.282
						c-1.063,0-2.127-0.234-2.938-0.703l-68.841-39.722c-0.811-0.469-1.217-1.082-1.217-1.696c0-0.571,0-2.611,0-3.182
						C36.581,323.72,36.987,323.106,37.798,322.638z"/>
				</g>
				<g style="opacity:0.35;">
					<path d="M37.798,322.638l10.66-6.155c1.622-0.937,4.253-0.937,5.876,0l55.244,31.872v21.282c-1.063,0-2.127-0.234-2.938-0.703
						l-68.841-39.722c-0.811-0.469-1.217-1.082-1.217-1.696c0-0.571,0-2.611,0-3.182C36.581,323.72,36.987,323.106,37.798,322.638z"
						/>
				</g>
			</g>
			<path style="fill:#37474F;" d="M121.344,348.769c-3.996-2.307-53.521-30.88-65.39-37.73c-2.186-1.262-4.867-1.262-7.052,0.001
				c-1.705,0.985-3.852,2.224-6.035,3.481c-4.229,2.434-5.855,3.067-6.208,5.279c-0.053,0.334-0.078,4.118-0.078,4.535
				c0,0.614,0.406,1.228,1.217,1.696l68.841,39.722c1.623,0.937,4.253,0.937,5.876,0l10.66-6.154
				c0.811-0.468,1.217-1.082,1.217-1.696c0-0.404-0.006-4.186-0.022-4.524C124.259,350.989,123.668,350.111,121.344,348.769z"/>
			<path style="fill:#455A64;" d="M55.535,311.629l66.061,38.117c0.777,0.449,1.166,1.037,1.166,1.626
				c0,0.588-0.389,1.177-1.166,1.626l-9.907,5.72c-1.719,0.993-4.532,0.992-6.251,0L39.377,320.6
				c-0.777-0.449-1.166-1.037-1.166-1.626c0-0.589,0.389-1.177,1.166-1.626l9.907-5.72
				C51.003,310.636,53.816,310.636,55.535,311.629z"/>
		</g>
	</g>
</g>
<g id="Signals">
	<g id="Signal">
		<g>
			<g>
				<path style="fill:#BA68C8;" d="M77.578,130.659c-0.226,0-0.442-0.057-0.636-0.168c-0.482-0.278-0.757-0.859-0.757-1.595V98.031
					c0-1.197,0.721-2.551,1.64-3.081l62.779-36.246c0.505-0.292,1.039-0.315,1.465-0.071c0.482,0.278,0.757,0.859,0.757,1.595
					v30.866c0,1.197-0.72,2.551-1.64,3.081L78.408,130.42C78.132,130.579,77.849,130.659,77.578,130.659z M141.43,59.628
					c-0.062,0-0.149,0.029-0.243,0.083L78.408,95.957c-0.563,0.325-1.058,1.294-1.058,2.073v30.866c0,0.384,0.114,0.552,0.175,0.586
					c0.053,0.031,0.171,0.004,0.301-0.07l62.779-36.246c0.564-0.325,1.058-1.294,1.058-2.073V60.227
					c0-0.384-0.114-0.552-0.175-0.586C141.473,59.632,141.453,59.628,141.43,59.628z"/>
			</g>
			<g>
				<path style="fill:#455A64;" d="M100.867,103.835c0.11-0.064,0.206-0.057,0.286,0.02c0.08,0.078,0.12,0.201,0.12,0.37v2.457
					c0,0.17-0.04,0.339-0.12,0.509c-0.08,0.17-0.176,0.287-0.286,0.351l-7.134,4.119c-0.111,0.064-0.206,0.057-0.286-0.02
					c-0.08-0.077-0.121-0.2-0.121-0.37v-14.97c0-0.171,0.04-0.34,0.121-0.51c0.08-0.17,0.175-0.287,0.286-0.351l7.013-4.049
					c0.11-0.064,0.206-0.057,0.286,0.02c0.08,0.077,0.121,0.2,0.121,0.371v2.456c0,0.17-0.04,0.34-0.121,0.51
					c-0.08,0.17-0.176,0.286-0.286,0.35l-4.635,2.676v2.503l4.304-2.485c0.111-0.064,0.206-0.057,0.286,0.021
					c0.08,0.077,0.121,0.2,0.121,0.37v2.457c0,0.17-0.04,0.34-0.121,0.509c-0.08,0.17-0.175,0.287-0.286,0.351l-4.304,2.485v2.596
					L100.867,103.835z"/>
				<path style="fill:#455A64;" d="M107.279,99.137l-1.926,5.283c-0.06,0.175-0.128,0.338-0.203,0.489
					c-0.076,0.151-0.213,0.285-0.414,0.401l-2.287,1.321c-0.091,0.052-0.168,0.048-0.233-0.016
					c-0.066-0.062-0.098-0.164-0.098-0.302c0-0.031,0.002-0.067,0.007-0.108c0.005-0.041,0.018-0.099,0.038-0.173l3.477-9.491
					l-3.326-5.286c-0.03-0.076-0.045-0.151-0.045-0.229c0-0.139,0.032-0.277,0.098-0.416c0.065-0.138,0.143-0.234,0.233-0.286
					l2.273-1.312c0.2-0.116,0.346-0.122,0.437-0.021c0.09,0.103,0.155,0.181,0.195,0.235l1.821,2.865l1.761-4.933
					c0.04-0.1,0.105-0.254,0.196-0.461c0.09-0.205,0.236-0.368,0.436-0.483l2.304-1.33c0.09-0.052,0.167-0.046,0.233,0.016
					c0.065,0.063,0.097,0.164,0.097,0.303c0,0.078-0.014,0.171-0.045,0.281l-3.341,9.229l3.447,5.401
					c0.02,0.05,0.033,0.094,0.038,0.129c0.005,0.036,0.007,0.069,0.007,0.1c0,0.139-0.032,0.277-0.097,0.415
					c-0.066,0.14-0.143,0.234-0.233,0.286l-2.288,1.321c-0.201,0.116-0.339,0.141-0.414,0.077c-0.075-0.064-0.142-0.149-0.203-0.254
					L107.279,99.137z"/>
				<path style="fill:#455A64;" d="M114.112,99.895c-0.111,0.064-0.206,0.057-0.286-0.02c-0.08-0.077-0.121-0.2-0.121-0.37v-14.97
					c0-0.171,0.04-0.34,0.121-0.51c0.08-0.17,0.175-0.287,0.286-0.351l1.972-1.138c0.11-0.064,0.206-0.057,0.286,0.02
					c0.08,0.077,0.121,0.2,0.121,0.371v14.97c0,0.17-0.04,0.339-0.121,0.509c-0.08,0.17-0.176,0.287-0.286,0.351L114.112,99.895z"/>
				<path style="fill:#455A64;" d="M126.332,76.619c0.111-0.064,0.206-0.057,0.286,0.02s0.121,0.2,0.121,0.371v2.456
					c0,0.17-0.04,0.34-0.121,0.51c-0.08,0.17-0.175,0.286-0.286,0.35l-2.648,1.529v11.889c0,0.17-0.04,0.339-0.121,0.509
					c-0.08,0.17-0.176,0.287-0.286,0.351l-1.971,1.138c-0.111,0.064-0.206,0.057-0.286-0.02s-0.12-0.201-0.12-0.37V83.463
					l-2.649,1.53c-0.111,0.064-0.206,0.058-0.286-0.019c-0.08-0.077-0.121-0.201-0.121-0.371v-2.456c0-0.171,0.04-0.34,0.121-0.51
					c0.08-0.17,0.175-0.287,0.286-0.351L126.332,76.619z"/>
			</g>
			<polygon style="fill:#E0E0E0;" points="131.671,89.862 131.671,73.633 138.868,77.593 			"/>
			<polygon style="fill:#E0E0E0;" points="87.282,115.49 87.282,99.261 80.085,111.531 			"/>
		</g>
		<path style="fill:#E0E0E0;" d="M61.567,138.241c0.509-0.293,0.897-1.085,0.933-1.98c0.055-1.371,0.12-2.747,0.145-4.102
			c0.01-0.571,0.135-0.909,0.5-1.247c0.807-0.749,1.532-1.736,2.162-2.936c0.497-0.948,0.57-1.564,0.274-2.305
			c-0.554-1.389-1.089-2.808-1.678-4.148c-0.304-0.692-0.371-1.547-0.365-2.493c0.007-1.154,0.021-2.312,0.014-3.458
			c-0.01-1.842-0.848-2.677-1.986-2.004c-1.137,0.64-1.975,2.442-1.986,4.297c-0.006,1.153,0.007,2.296,0.015,3.441
			c0.006,0.939-0.061,1.872-0.365,2.914c-0.589,2.021-1.124,4.056-1.678,6.085c-0.296,1.083-0.223,1.615,0.274,1.988
			c0.63,0.473,1.355,0.622,2.162,0.439c0.365-0.083,0.489,0.112,0.5,0.67c0.025,1.326,0.09,2.627,0.145,3.934
			C60.67,138.191,61.058,138.535,61.567,138.241z"/>
		<path style="fill:#E0E0E0;" d="M48.41,126.811c-0.031-0.939-0.072-1.872-0.092-2.818c-0.034-1.637,0.648-3.132,1.717-3.764
			c0.955-0.564,1.909-1.115,2.864-1.655c1.041-0.588,1.757,0.187,1.706,1.825c-0.077,2.446-0.173,4.902-0.223,7.334
			c-0.028,1.361-0.353,2.521-1.169,3.574c-0.135,0.174-0.237,0.635-0.25,0.915c-0.15,3.187-0.279,6.364-0.416,9.544
			c-0.036,0.835-0.298,1.541-0.747,2.033c-0.415,0.455-0.918,0.583-1.157,0.161c-0.158-0.279-0.26-0.702-0.282-1.134
			c-0.141-2.785-0.263-5.583-0.367-8.393c-0.025-0.689-0.092-1.166-0.586-1.211c-0.526-0.048-0.781-0.675-0.818-1.543
			c-0.068-1.618-0.119-3.248-0.178-4.872C48.412,126.81,48.411,126.811,48.41,126.811z"/>
		<path style="fill:#E0E0E0;" d="M63.369,108.612c-0.011,1.572-0.811,3.248-1.83,3.83c-1.035,0.592-1.838-0.197-1.827-1.795
			c0.01-1.579,0.845-3.298,1.877-3.864C62.596,106.231,63.38,107.036,63.369,108.612z"/>
		<path style="fill:#E0E0E0;" d="M51.464,118.261c-1.038,0.597-1.845-0.182-1.837-1.773c0.008-1.565,0.81-3.26,1.822-3.85
			c1.026-0.598,1.844,0.191,1.84,1.775C53.285,115.964,52.47,117.682,51.464,118.261z"/>
		<path style="fill:#E0E0E0;" d="M166.648,77.573c0.509-0.293,0.897-1.085,0.933-1.98c0.055-1.371,0.12-2.747,0.145-4.102
			c0.01-0.571,0.135-0.909,0.5-1.247c0.807-0.749,1.532-1.736,2.162-2.936c0.497-0.948,0.57-1.564,0.275-2.305
			c-0.555-1.389-1.089-2.807-1.678-4.148c-0.304-0.692-0.371-1.547-0.365-2.493c0.008-1.154,0.021-2.312,0.015-3.458
			c-0.01-1.842-0.848-2.677-1.986-2.004c-1.137,0.64-1.975,2.443-1.986,4.297c-0.007,1.153,0.007,2.296,0.015,3.441
			c0.006,0.939-0.061,1.872-0.365,2.914c-0.589,2.021-1.124,4.056-1.678,6.085c-0.296,1.083-0.223,1.615,0.274,1.988
			c0.63,0.473,1.355,0.622,2.162,0.439c0.365-0.083,0.489,0.111,0.5,0.67c0.025,1.326,0.09,2.627,0.145,3.934
			C165.751,77.523,166.139,77.867,166.648,77.573z"/>
		<path style="fill:#E0E0E0;" d="M153.491,66.143c-0.031-0.939-0.072-1.872-0.092-2.818c-0.034-1.638,0.648-3.132,1.717-3.764
			c0.955-0.564,1.909-1.115,2.864-1.654c1.04-0.588,1.757,0.187,1.706,1.825c-0.077,2.446-0.173,4.902-0.223,7.334
			c-0.028,1.361-0.353,2.522-1.169,3.574c-0.135,0.174-0.237,0.635-0.25,0.915c-0.15,3.187-0.279,6.364-0.416,9.545
			c-0.036,0.835-0.298,1.541-0.747,2.033c-0.415,0.455-0.918,0.583-1.157,0.161c-0.158-0.279-0.26-0.702-0.282-1.134
			c-0.141-2.785-0.263-5.583-0.366-8.393c-0.025-0.689-0.092-1.166-0.586-1.211c-0.526-0.047-0.781-0.675-0.818-1.543
			c-0.068-1.618-0.119-3.248-0.178-4.872C153.493,66.141,153.492,66.142,153.491,66.143z"/>
		<path style="fill:#E0E0E0;" d="M168.45,47.944c-0.011,1.572-0.811,3.248-1.83,3.83c-1.035,0.592-1.838-0.197-1.827-1.795
			c0.01-1.579,0.845-3.298,1.876-3.864C167.677,45.563,168.461,46.368,168.45,47.944z"/>
		<path style="fill:#E0E0E0;" d="M156.545,57.593c-1.038,0.597-1.845-0.182-1.837-1.773c0.008-1.565,0.81-3.26,1.822-3.85
			c1.026-0.598,1.844,0.191,1.84,1.775C158.366,55.296,157.551,57.014,156.545,57.593z"/>
	</g>
	<g id="Seats_Signal">
		<g>
			<path style="fill:#BA68C8;" d="M240.311,468.095c-1.818,0-3.636-0.398-5.021-1.196l-21.777-12.542
				c-1.447-0.834-2.245-1.977-2.245-3.217c-0.001-1.24,0.796-2.383,2.242-3.219l97.512-56.299c2.771-1.6,7.283-1.601,10.056,0
				l21.707,12.533c1.446,0.836,2.243,1.98,2.244,3.221c0,1.241-0.797,2.385-2.243,3.221l-97.438,56.295
				C243.959,467.694,242.134,468.095,240.311,468.095z M213.785,448.397l0.274,0.476c-1.093,0.631-1.694,1.435-1.693,2.267
				c0,0.832,0.603,1.637,1.696,2.267l21.776,12.542c2.471,1.422,6.489,1.421,8.96-0.007l97.439-56.295
				c1.093-0.631,1.694-1.436,1.693-2.27c0-0.833-0.602-1.639-1.694-2.27l-21.707-12.533c-2.47-1.426-6.486-1.426-8.958,0
				l-97.512,56.299L213.785,448.397z"/>
		</g>
		<g>
			<g>
				<path style="fill:#455A64;" d="M239.228,458.423c-0.911,0.276-1.555,0.305-1.932,0.087c-0.178-0.103-0.322-0.285-0.433-0.548
					c-0.111-0.263-0.094-0.436,0.049-0.52c0.067-0.039,0.251-0.08,0.55-0.125c0.466-0.09,0.858-0.178,1.174-0.264
					c0.316-0.086,0.641-0.226,0.975-0.419c0.51-0.294,0.783-0.631,0.816-1.009c0.034-0.379-0.262-0.747-0.883-1.106
					c-0.644-0.372-1.282-0.549-1.916-0.529c-0.633,0.019-1.289,0.224-1.967,0.615l-0.616,0.356
					c-0.155,0.089-0.324,0.124-0.508,0.102c-0.182-0.023-0.402-0.108-0.658-0.256l-0.249-0.144c-0.256-0.148-0.402-0.274-0.443-0.38
					c-0.037-0.105,0.021-0.204,0.176-0.293l0.483-0.279c0.567-0.327,0.838-0.677,0.816-1.048c-0.022-0.372-0.255-0.686-0.7-0.943
					c-0.422-0.244-0.885-0.373-1.391-0.389c-0.506-0.016-1.003,0.117-1.492,0.4c-0.322,0.186-0.549,0.359-0.682,0.52
					c-0.133,0.16-0.236,0.319-0.309,0.476c-0.071,0.157-0.131,0.248-0.175,0.273c-0.134,0.077-0.424,0.089-0.874,0.034
					c-0.451-0.055-0.776-0.139-0.976-0.255c-0.333-0.192-0.311-0.513,0.067-0.962s0.927-0.882,1.649-1.298
					c0.978-0.565,2.008-0.861,3.09-0.89c1.084-0.029,2.07,0.213,2.959,0.726c0.578,0.334,0.93,0.704,1.057,1.111
					c0.127,0.407,0.054,0.813-0.224,1.217l0.067,0.039c0.822-0.231,1.674-0.297,2.556-0.197c0.883,0.099,1.697,0.363,2.441,0.793
					c0.723,0.417,1.196,0.865,1.425,1.343c0.227,0.478,0.215,0.949-0.034,1.414c-0.249,0.465-0.714,0.893-1.391,1.284
					C240.971,457.792,240.14,458.147,239.228,458.423z"/>
				<path style="fill:#455A64;" d="M245.759,454.402c-0.367-0.116-0.672-0.244-0.916-0.384c-0.122-0.07-0.184-0.131-0.184-0.183
					l-1.665-5.252c-0.145-0.416-0.294-0.737-0.451-0.962c-0.155-0.224-0.372-0.417-0.65-0.577c-0.433-0.25-0.902-0.363-1.406-0.341
					c-0.507,0.022-0.992,0.168-1.459,0.438c-0.333,0.192-0.571,0.391-0.716,0.596c-0.144,0.205-0.266,0.433-0.366,0.683
					c-0.056,0.186-0.122,0.301-0.2,0.346c-0.189,0.109-0.491,0.143-0.909,0.101c-0.416-0.041-0.731-0.124-0.942-0.245
					c-0.277-0.16-0.366-0.394-0.267-0.702c0.1-0.308,0.334-0.634,0.7-0.981c0.367-0.346,0.789-0.657,1.267-0.933
					c1.055-0.609,2.153-0.931,3.291-0.967c1.138-0.036,2.152,0.204,3.04,0.716c0.512,0.296,0.896,0.637,1.158,1.025
					s0.48,0.934,0.658,1.64l1.282,3.8l3.666-2.117c0.155-0.089,0.325-0.123,0.509-0.101c0.182,0.023,0.402,0.108,0.657,0.255
					l0.251,0.145c0.256,0.148,0.402,0.274,0.442,0.379c0.039,0.107-0.02,0.204-0.175,0.294l-5.899,3.406
					C246.365,454.543,246.126,454.517,245.759,454.402z"/>
			</g>
			<g>
				<path style="fill:#455A64;" d="M273.282,436.216c-1.326-0.117-2.806-0.648-4.441-1.592c-1.591-0.918-2.483-1.77-2.677-2.556
					c-0.195-0.786,0.309-1.526,1.511-2.219c0.486-0.28,0.949-0.482,1.392-0.604c0.177-0.051,0.335-0.067,0.478-0.046
					c0.141,0.02,0.278,0.074,0.41,0.16c0.266,0.154,0.464,0.327,0.597,0.521c0.133,0.194,0.085,0.317-0.146,0.367
					c-0.423,0.102-0.804,0.25-1.14,0.444c-0.61,0.352-0.799,0.766-0.569,1.239c0.23,0.475,0.884,1.023,1.962,1.645
					c1.087,0.627,2.041,1.009,2.863,1.141c0.822,0.133,1.551,0.015,2.187-0.352c0.195-0.112,0.346-0.22,0.457-0.325
					c0.111-0.105,0.227-0.229,0.352-0.372c0.035-0.041,0.066-0.069,0.092-0.084c0.151-0.087,0.365-0.096,0.643-0.027
					c0.278,0.069,0.558,0.185,0.842,0.349c0.124,0.072,0.203,0.145,0.238,0.221c0.036,0.077,0.009,0.171-0.079,0.283
					c-0.088,0.123-0.234,0.268-0.437,0.436c-0.203,0.168-0.443,0.332-0.716,0.49C275.879,436.039,274.608,436.333,273.282,436.216z"
					/>
			</g>
			<g>
				<g>
					<path style="fill:#455A64;" d="M258.141,440.092l-4.52,2.61c-1.101,0.636-0.963,1.746,0.308,2.48l4.325,2.497l8.508-4.912
						l-4.325-2.497C261.165,439.536,259.242,439.457,258.141,440.092z"/>
				</g>
				<g>
					<path style="fill:#455A64;" d="M254.96,438.136c1.305,0.754,1.305,1.975,0,2.729c-1.305,0.754-3.421,0.754-4.727,0
						c-1.305-0.754-1.305-1.975,0-2.729C251.538,437.383,253.655,437.383,254.96,438.136z"/>
				</g>
			</g>
			<g>
				<path style="fill:#455A64;" d="M283.5,434.581l-8.707,5.027c-1.689,0.975-4.437,0.975-6.127-0.001l-8.707-5.027
					c-1.689-0.975-1.689-2.562,0-3.537l8.707-5.027c1.69-0.976,4.439-0.976,6.127-0.001l8.707,5.027
					C285.19,432.019,285.19,433.606,283.5,434.581z M261.085,431.693c-1.069,0.617-1.069,1.621,0,2.238l8.707,5.027
					c1.069,0.617,2.808,0.618,3.877,0.001l8.707-5.027c1.069-0.617,1.069-1.622,0-2.239l-8.707-5.027
					c-1.069-0.617-2.808-0.617-3.877,0.001L261.085,431.693z"/>
			</g>
			<g>
				<path style="fill:#455A64;" d="M290.722,427.232c-0.146-0.002-0.306-0.054-0.483-0.156l-8.311-4.798
					c-0.168-0.097-0.255-0.188-0.258-0.272c-0.004-0.084,0.073-0.173,0.231-0.264l2.347-1.355c0.91-0.525,1.785-0.801,2.625-0.827
					c0.839-0.025,1.622,0.171,2.347,0.59c0.494,0.285,0.816,0.599,0.968,0.941c0.149,0.342,0.136,0.666-0.041,0.972l0.053,0.03
					c0.531-0.163,1.123-0.222,1.776-0.176c0.655,0.046,1.286,0.244,1.896,0.596c0.831,0.479,1.227,0.995,1.193,1.546
					c-0.036,0.551-0.539,1.107-1.512,1.668l-2.373,1.37C291.021,427.19,290.868,427.235,290.722,427.232z M288.077,422.628
					c0.326-0.188,0.469-0.398,0.425-0.627c-0.045-0.229-0.27-0.462-0.677-0.697c-0.424-0.245-0.812-0.374-1.159-0.386
					c-0.349-0.013-0.697,0.08-1.042,0.279l-1.087,0.627l2.465,1.423L288.077,422.628z M292.293,424.848
					c0.724-0.418,0.627-0.893-0.292-1.423c-0.433-0.25-0.847-0.38-1.245-0.39c-0.398-0.01-0.792,0.097-1.181,0.322l-1.192,0.688
					l2.651,1.531L292.293,424.848z"/>
			</g>
			<g>
				<path style="fill:#455A64;" d="M300.447,424.797l-8.707,5.027c-1.69,0.976-4.439,0.976-6.128,0l-8.707-5.027
					c-1.689-0.975-1.689-2.562,0.001-3.537l8.707-5.027c1.689-0.975,4.437-0.975,6.126,0l8.707,5.027
					C302.135,422.235,302.135,423.822,300.447,424.797z M278.031,421.909c-1.069,0.617-1.07,1.621-0.001,2.239l8.707,5.027
					c1.069,0.617,2.809,0.617,3.878,0l8.707-5.027c1.069-0.617,1.068-1.621-0.001-2.238l-8.707-5.027
					c-1.069-0.617-2.807-0.617-3.876,0L278.031,421.909z"/>
			</g>
			<g>
				<path style="fill:#455A64;" d="M306.894,417.751c-0.026-0.015-0.093-0.064-0.198-0.146l-6.337-6.168
					c-0.168-0.158-0.04-0.36,0.385-0.605l0.702-0.405c0.424-0.245,0.778-0.321,1.061-0.23l10.67,3.666
					c0.141,0.061,0.226,0.099,0.253,0.114c0.177,0.102,0.083,0.258-0.279,0.467l-0.531,0.306c-0.38,0.22-0.671,0.291-0.875,0.214
					l-2.24-0.804l-2.306,1.331l1.392,1.293c0.132,0.118,0.026,0.275-0.319,0.474l-0.531,0.306
					C307.353,417.792,307.071,417.853,306.894,417.751z M307.849,413.496l-3.805-1.37c-0.344-0.128-0.711-0.279-1.1-0.452
					l-0.067,0.039c0.301,0.225,0.563,0.436,0.782,0.636l2.386,2.188L307.849,413.496z"/>
			</g>
			<g>
				<path style="fill:#455A64;" d="M317.392,415.013l-8.707,5.027c-1.69,0.976-4.439,0.976-6.128,0l-8.707-5.027
					c-1.689-0.975-1.689-2.562,0.001-3.538l8.707-5.027c1.69-0.976,4.439-0.976,6.127-0.001l8.707,5.027
					C319.082,412.451,319.082,414.038,317.392,415.013z M294.977,412.126c-1.069,0.617-1.07,1.621-0.001,2.238l8.707,5.027
					c1.069,0.617,2.809,0.617,3.878,0l8.707-5.027c1.069-0.617,1.069-1.622,0-2.239l-8.707-5.027
					c-1.069-0.617-2.808-0.617-3.877,0.001L294.977,412.126z"/>
			</g>
			<g>
				<path style="fill:#455A64;" d="M327.655,405.983l-4.696,2.711c-1.079,0.623-2.837,0.623-3.916,0l-5.877-3.393
					c-1.079-0.623-1.079-1.638,0-2.261l4.696-2.711c1.079-0.623,2.837-0.623,3.916,0l5.877,3.393
					C328.734,404.345,328.734,405.36,327.655,405.983z M314.371,403.736c-0.415,0.24-0.415,0.63,0,0.87l5.877,3.393
					c0.415,0.24,1.092,0.24,1.507,0l4.696-2.711c0.415-0.24,0.415-0.63,0-0.87l-5.877-3.393c-0.415-0.24-1.092-0.24-1.507,0
					L314.371,403.736z"/>
			</g>
			<g>
				<path style="fill:#455A64;" d="M323.793,404.789l-3.863-2.23c-0.492-0.284-1.448-0.193-2.135,0.203l-2.134,1.232
					c-0.687,0.397-0.845,0.949-0.353,1.233l3.863,2.23c0.492,0.284,1.448,0.193,2.135-0.204l2.134-1.232
					C324.128,405.625,324.286,405.073,323.793,404.789z"/>
			</g>
		</g>
	</g>
</g>
</svg>
